<svg id="svg" version="1.1" xmlns="http://www.w3.org/2000/svg" xmlns:xlink="http://www.w3.org/1999/xlink" width="400" height="362.2641509433962" viewBox="0, 0, 400,362.2641509433962"><g id="svgg"><path id="path0" d="M178.605 12.264 C 159.572 33.484,158.423 37.440,160.840 73.467 C 162.615 99.928,161.803 110.779,157.229 121.726 C 150.151 138.666,151.976 139.043,173.864 125.163 C 193.448 112.743,210.256 93.951,217.726 76.122 C 234.874 35.197,203.692 -15.704,178.605 12.264 M117.318 69.405 C 114.920 72.295,107.919 76.747,101.762 79.297 C 87.836 85.065,87.558 88.993,100.841 92.327 C 106.492 93.745,117.759 101.995,125.880 110.660 L 140.644 126.415 138.240 104.947 C 134.216 69.000,127.344 57.325,117.318 69.405 M62.596 103.797 C 42.027 122.859,6.390 240.546,19.867 244.904 C 35.434 249.937,56.223 278.334,58.853 298.158 L 61.553 318.515 75.391 302.922 C 83.002 294.346,94.754 276.963,101.507 264.293 L 113.785 241.256 90.901 214.271 C 55.006 171.943,49.006 146.877,69.793 126.090 C 88.762 107.121,112.069 119.275,132.129 158.595 C 142.034 178.010,142.889 177.509,139.242 154.435 C 131.616 106.191,89.813 78.573,62.596 103.797 M241.509 107.908 C 241.509 109.145,244.002 114.664,247.048 120.172 C 258.253 140.435,264.196 168.850,258.259 173.777 C 255.319 176.217,254.006 179.982,255.342 182.143 C 256.828 184.548,255.917 184.927,252.991 183.118 C 250.363 181.494,247.129 181.656,245.805 183.479 C 244.480 185.301,231.509 196.859,216.981 209.162 C 202.453 221.466,188.276 233.581,185.476 236.085 C 181.232 239.881,181.509 242.434,187.145 251.451 L 193.904 262.264 182.241 251.549 C 169.438 239.785,159.031 241.492,150.897 256.690 C 141.253 274.711,164.651 292.296,179.078 277.869 C 184.146 272.801,188.866 270.371,189.566 272.470 C 190.265 274.570,197.370 268.887,205.354 259.842 C 252.152 206.824,269.328 191.596,272.538 200.274 C 275.178 207.412,270.354 214.019,238.603 246.750 C 148.889 339.235,130.897 358.489,134.210 358.470 C 156.460 358.337,167.010 349.282,282.597 231.114 C 346.934 165.339,399.027 110.977,398.359 110.309 C 389.085 101.035,359.591 120.676,321.655 161.388 C 288.279 197.207,280.919 203.449,279.926 196.778 C 279.263 192.324,277.101 188.679,275.122 188.679 C 273.143 188.679,274.257 184.509,277.597 179.411 C 284.181 169.363,281.695 160.517,273.203 163.775 C 269.747 165.102,267.925 163.151,267.925 158.124 C 267.925 153.902,266.038 146.922,263.731 142.612 C 259.414 134.545,289.385 153.634,298.746 164.913 C 303.909 171.134,309.480 171.230,309.282 165.094 C 309.199 162.500,298.837 152.736,286.256 143.396 C 273.676 134.057,259.420 121.745,254.576 116.038 C 246.090 106.038,241.509 103.188,241.509 107.908 M72.128 130.500 C 53.372 154.344,62.861 178.713,110.241 228.385 L 142.336 262.031 152.181 250.827 C 164.842 236.418,165.460 240.116,142.218 191.219 C 110.984 125.511,90.209 107.513,72.128 130.500 M15.094 254.011 C 15.094 256.736,20.335 263.953,26.740 270.049 C 33.145 276.145,40.097 284.528,42.189 288.679 C 44.281 292.830,39.113 288.585,30.704 279.245 C 15.687 262.565,12.920 263.001,15.417 281.654 C 15.594 282.978,14.023 285.122,11.926 286.418 C 9.392 287.985,9.593 293.506,12.527 302.878 C 17.593 319.064,24.750 322.243,20.915 306.604 C 18.488 296.705,18.630 296.575,23.999 303.774 C 29.543 311.207,29.803 311.154,41.229 300.237 C 55.901 286.220,55.896 286.176,37.255 265.953 C 21.287 248.630,15.094 245.293,15.094 254.011 M179.880 258.783 C 182.837 266.490,172.150 277.177,164.444 274.219 C 161.169 272.963,158.491 267.636,158.491 262.383 C 158.491 251.229,175.859 248.307,179.880 258.783 " stroke="none" fill="#000000" fill-rule="evenodd"></path></g></svg>