<svg id="svg" version="1.1" xmlns="http://www.w3.org/2000/svg" xmlns:xlink="http://www.w3.org/1999/xlink" width="400" height="400" viewBox="0, 0, 400,400"><g id="svgg"><path id="path0" d="M117.328 153.795 C 103.639 157.141,99.445 174.206,110.125 183.100 C 110.720 183.595,111.385 184.000,111.603 184.000 C 111.821 184.000,112.000 184.147,112.000 184.326 C 112.000 184.736,120.962 189.200,121.784 189.200 C 121.929 189.200,123.542 189.913,125.369 190.785 C 141.077 198.282,132.331 218.412,116.448 211.317 C 112.460 209.536,108.518 203.099,107.925 197.400 C 107.818 196.375,107.614 196.182,106.523 196.076 C 104.972 195.926,105.082 195.357,103.793 210.200 C 103.459 214.049,104.455 215.048,106.371 212.784 L 107.400 211.567 108.800 212.311 C 109.570 212.721,110.830 213.413,111.600 213.849 C 117.550 217.221,126.335 217.606,132.285 214.755 C 134.515 213.687,138.800 210.023,138.800 209.185 C 138.800 209.005,139.055 208.602,139.368 208.289 C 141.994 205.663,142.894 195.357,140.943 190.250 C 139.304 185.961,134.306 181.435,129.600 179.978 C 115.748 175.689,110.787 170.711,113.170 163.489 C 116.554 153.236,129.681 155.044,135.185 166.521 C 137.983 172.355,139.589 171.411,138.794 164.400 C 138.557 162.310,138.257 159.125,138.127 157.322 C 137.856 153.569,137.362 153.034,135.465 154.437 C 134.390 155.231,134.122 155.267,132.443 154.837 C 125.736 153.123,121.323 152.818,117.328 153.795 M169.800 153.600 C 169.360 153.789,168.460 153.959,167.800 153.978 C 163.680 154.094,155.299 158.757,152.125 162.699 C 151.286 163.740,150.330 164.898,150.000 165.272 C 149.074 166.321,146.490 171.306,145.766 173.439 C 142.032 184.437,143.842 197.067,150.394 205.746 C 151.801 207.609,156.691 212.000,157.359 212.000 C 157.500 212.000,158.316 212.442,159.172 212.983 C 165.009 216.667,177.193 217.709,184.400 215.140 C 192.200 212.359,202.505 203.227,200.300 201.049 C 199.262 200.024,198.476 200.025,197.803 201.051 C 196.181 203.526,190.578 208.000,189.099 208.000 C 188.803 208.000,188.389 208.150,188.180 208.334 C 185.499 210.690,175.352 211.244,170.600 209.295 C 157.527 203.933,151.219 183.309,157.940 167.905 C 162.258 158.011,173.861 154.074,183.800 159.132 C 188.196 161.369,196.000 171.105,196.000 174.353 C 196.000 175.012,196.698 175.241,197.835 174.956 C 199.027 174.656,199.020 175.022,198.018 166.200 C 196.628 153.966,196.797 154.633,195.146 154.866 C 194.533 154.953,194.156 155.307,194.076 155.871 C 193.822 157.653,193.091 157.716,189.541 156.263 C 183.271 153.698,172.846 152.291,169.800 153.600 M43.866 154.329 C 43.380 154.424,43.200 154.882,43.200 156.022 C 43.200 157.794,43.439 157.919,47.190 158.096 C 50.433 158.250,50.384 158.037,50.411 172.200 C 50.455 194.845,51.019 201.203,53.438 206.317 C 59.272 218.648,82.154 220.490,91.905 209.414 C 96.642 204.032,97.365 199.759,97.855 174.271 C 98.180 157.399,98.026 158.000,102.015 158.000 C 104.402 158.000,105.212 157.472,105.194 155.926 C 105.177 154.454,104.548 154.252,100.331 154.365 C 98.059 154.425,93.590 154.503,90.400 154.537 L 84.600 154.600 84.466 155.780 C 84.287 157.348,85.239 158.000,87.705 158.000 C 91.251 158.000,91.604 158.917,92.246 169.791 C 94.050 200.360,92.026 207.911,81.140 211.221 C 74.516 213.236,67.369 211.044,64.227 206.033 C 61.897 202.318,61.185 195.664,61.228 178.020 C 61.278 158.227,61.303 158.134,66.800 157.918 L 69.800 157.800 69.922 156.111 L 70.045 154.422 57.288 154.311 C 50.272 154.250,44.232 154.258,43.866 154.329 M267.900 155.893 C 268.835 155.977,270.365 155.977,271.300 155.893 C 272.235 155.809,271.470 155.740,269.600 155.740 C 267.730 155.740,266.965 155.809,267.900 155.893 M311.507 155.890 C 312.226 155.979,313.306 155.977,313.907 155.886 C 314.508 155.795,313.920 155.722,312.600 155.724 C 311.280 155.726,310.788 155.801,311.507 155.890 M343.100 155.882 C 343.595 155.978,344.405 155.978,344.900 155.882 C 345.395 155.787,344.990 155.709,344.000 155.709 C 343.010 155.709,342.605 155.787,343.100 155.882 M212.912 159.095 C 213.964 159.177,215.584 159.176,216.512 159.092 C 217.440 159.008,216.580 158.941,214.600 158.942 C 212.620 158.943,211.860 159.012,212.912 159.095 M231.900 159.089 C 232.615 159.178,233.785 159.178,234.500 159.089 C 235.215 159.001,234.630 158.928,233.200 158.928 C 231.770 158.928,231.185 159.001,231.900 159.089 M319.100 159.089 C 319.815 159.178,320.985 159.178,321.700 159.089 C 322.415 159.001,321.830 158.928,320.400 158.928 C 318.970 158.928,318.385 159.001,319.100 159.089 M333.305 159.087 C 333.914 159.179,334.814 159.177,335.305 159.082 C 335.797 158.987,335.300 158.911,334.200 158.914 C 333.100 158.917,332.697 158.995,333.305 159.087 M341.700 159.476 C 342.085 159.576,342.715 159.576,343.100 159.476 C 343.485 159.375,343.170 159.293,342.400 159.293 C 341.630 159.293,341.315 159.375,341.700 159.476 M323.788 183.600 C 323.788 196.910,323.838 202.355,323.900 195.700 C 323.961 189.045,323.961 178.155,323.900 171.500 C 323.838 164.845,323.788 170.290,323.788 183.600 M248.800 163.800 C 247.828 164.790,247.123 165.600,247.233 165.600 C 247.343 165.600,248.228 164.790,249.200 163.800 C 250.172 162.810,250.877 162.000,250.767 162.000 C 250.657 162.000,249.772 162.810,248.800 163.800 M350.800 163.200 C 351.270 163.860,351.744 164.400,351.854 164.400 C 351.964 164.400,351.670 163.860,351.200 163.200 C 350.730 162.540,350.256 162.000,350.146 162.000 C 350.036 162.000,350.330 162.540,350.800 163.200 M220.546 167.000 C 220.547 169.200,220.614 170.049,220.695 168.887 C 220.776 167.724,220.776 165.924,220.693 164.887 C 220.611 163.849,220.545 164.800,220.546 167.000 M283.600 164.600 C 284.346 165.370,285.047 166.000,285.157 166.000 C 285.267 166.000,284.746 165.370,284.000 164.600 C 283.254 163.830,282.553 163.200,282.443 163.200 C 282.333 163.200,282.854 163.830,283.600 164.600 M354.000 169.772 C 354.000 170.362,355.657 170.804,356.305 170.387 C 356.951 169.971,356.949 169.956,356.271 170.168 C 355.870 170.294,355.195 170.211,354.771 169.984 C 354.347 169.758,354.000 169.662,354.000 169.772 M228.559 184.800 C 228.559 187.990,228.621 189.295,228.697 187.700 C 228.773 186.105,228.773 183.495,228.697 181.900 C 228.621 180.305,228.559 181.610,228.559 184.800 M248.534 184.000 C 248.534 185.650,248.605 186.325,248.691 185.500 C 248.778 184.675,248.778 183.325,248.691 182.500 C 248.605 181.675,248.534 182.350,248.534 184.000 M220.540 204.400 C 220.540 206.270,220.609 207.035,220.693 206.100 C 220.777 205.165,220.777 203.635,220.693 202.700 C 220.609 201.765,220.540 202.530,220.540 204.400 M331.731 207.800 C 331.733 209.340,331.805 209.921,331.892 209.091 C 331.979 208.261,331.977 207.001,331.889 206.291 C 331.800 205.581,331.729 206.260,331.731 207.800 M213.111 213.093 C 214.051 213.178,215.491 213.177,216.311 213.091 C 217.130 213.005,216.360 212.936,214.600 212.937 C 212.840 212.939,212.170 213.009,213.111 213.093 M232.291 213.089 C 233.001 213.177,234.261 213.179,235.091 213.092 C 235.921 213.005,235.340 212.933,233.800 212.931 C 232.260 212.929,231.581 213.000,232.291 213.089 M267.700 213.076 C 268.085 213.176,268.715 213.176,269.100 213.076 C 269.485 212.975,269.170 212.893,268.400 212.893 C 267.630 212.893,267.315 212.975,267.700 213.076 M316.700 213.093 C 317.635 213.177,319.165 213.177,320.100 213.093 C 321.035 213.009,320.270 212.940,318.400 212.940 C 316.530 212.940,315.765 213.009,316.700 213.093 M335.111 213.093 C 336.051 213.178,337.491 213.177,338.311 213.091 C 339.130 213.005,338.360 212.936,336.600 212.937 C 334.840 212.939,334.170 213.009,335.111 213.093 M316.711 216.293 C 317.651 216.378,319.091 216.377,319.911 216.291 C 320.730 216.205,319.960 216.136,318.200 216.137 C 316.440 216.139,315.770 216.209,316.711 216.293 M335.700 216.291 C 336.525 216.378,337.875 216.378,338.700 216.291 C 339.525 216.205,338.850 216.134,337.200 216.134 C 335.550 216.134,334.875 216.205,335.700 216.291 M48.670 232.285 C 48.562 232.458,50.122 232.559,52.137 232.509 C 54.735 232.444,55.538 232.528,54.900 232.796 C 53.801 233.258,53.692 233.688,54.776 233.287 C 55.203 233.129,55.564 232.820,55.579 232.600 C 55.610 232.125,48.958 231.821,48.670 232.285 M133.776 233.501 C 132.884 234.325,132.524 234.708,132.976 234.351 C 133.429 233.994,134.050 233.792,134.356 233.903 C 134.696 234.026,134.803 233.929,134.632 233.652 C 134.457 233.368,134.697 233.188,135.276 233.168 C 135.784 233.151,135.974 233.046,135.698 232.934 C 135.421 232.823,135.297 232.567,135.421 232.366 C 135.833 231.699,135.418 231.986,133.776 233.501 M167.149 232.100 C 166.834 232.718,166.985 233.975,167.333 233.627 C 167.925 233.035,171.717 233.090,172.401 233.700 C 172.878 234.125,172.882 234.096,172.432 233.500 C 172.033 232.974,171.294 232.793,169.451 232.772 C 167.711 232.752,167.232 232.644,167.800 232.400 C 168.484 232.106,168.499 232.052,167.900 232.028 C 167.515 232.013,167.177 232.045,167.149 232.100 M243.905 232.283 C 244.402 232.379,245.122 232.375,245.505 232.275 C 245.887 232.175,245.480 232.096,244.600 232.101 C 243.720 232.105,243.407 232.187,243.905 232.283 M252.300 232.282 C 252.795 232.378,253.605 232.378,254.100 232.282 C 254.595 232.187,254.190 232.109,253.200 232.109 C 252.210 232.109,251.805 232.187,252.300 232.282 M244.219 233.170 C 244.090 233.378,244.775 233.509,245.795 233.470 C 246.788 233.431,247.600 233.265,247.600 233.100 C 247.600 232.666,244.490 232.730,244.219 233.170 M250.243 233.433 C 249.863 234.423,249.981 234.675,250.448 233.871 C 250.795 233.274,251.165 233.191,252.487 233.415 C 253.625 233.607,254.020 233.557,253.827 233.244 C 253.392 232.540,250.528 232.691,250.243 233.433 M53.728 236.800 C 53.728 238.230,53.801 238.815,53.889 238.100 C 53.978 237.385,53.978 236.215,53.889 235.500 C 53.801 234.785,53.728 235.370,53.728 236.800 M257.200 235.243 C 257.200 235.486,256.921 235.578,256.579 235.447 C 256.223 235.311,256.063 235.378,256.203 235.605 C 256.583 236.219,257.600 236.070,257.600 235.400 C 257.600 235.070,257.510 234.800,257.400 234.800 C 257.290 234.800,257.200 234.999,257.200 235.243 M131.240 237.840 C 131.010 238.673,130.894 239.427,130.982 239.515 C 131.070 239.603,131.330 238.993,131.560 238.160 C 131.790 237.327,131.906 236.573,131.818 236.485 C 131.730 236.397,131.470 237.007,131.240 237.840 M110.151 237.679 C 109.990 237.939,110.058 238.012,110.314 237.853 C 110.554 237.705,110.936 237.902,111.163 238.292 C 111.526 238.915,111.577 238.921,111.588 238.343 C 111.603 237.549,110.536 237.056,110.151 237.679 M77.381 239.300 L 75.800 241.000 77.500 239.419 C 79.081 237.948,79.384 237.600,79.081 237.600 C 79.016 237.600,78.251 238.365,77.381 239.300 M205.375 239.700 L 204.200 241.000 205.500 239.825 C 206.215 239.179,206.800 238.594,206.800 238.525 C 206.800 238.216,206.470 238.488,205.375 239.700 M208.100 239.200 C 208.200 239.569,208.788 239.822,209.631 239.856 C 210.885 239.908,210.899 239.897,209.801 239.720 C 209.142 239.614,208.453 239.319,208.271 239.064 C 208.047 238.751,207.991 238.795,208.100 239.200 M70.923 239.857 C 70.801 240.175,70.813 240.547,70.951 240.684 C 71.088 240.821,71.200 240.723,71.200 240.467 C 71.200 239.771,72.421 239.903,73.369 240.700 L 74.200 241.400 73.400 240.437 L 72.600 239.474 73.501 239.700 C 73.996 239.824,74.311 239.780,74.202 239.603 C 73.849 239.032,71.159 239.240,70.923 239.857 M118.126 239.849 C 118.002 240.171,118.013 240.547,118.151 240.684 C 118.288 240.821,118.400 240.723,118.400 240.467 C 118.400 239.848,119.694 239.870,120.401 240.500 C 120.847 240.898,120.843 240.845,120.384 240.242 C 119.846 239.536,119.874 239.506,120.803 239.792 C 121.351 239.961,121.670 239.962,121.512 239.795 C 120.945 239.196,118.361 239.237,118.126 239.849 M133.600 239.594 C 133.930 239.811,134.635 239.991,135.167 239.994 C 136.451 240.002,136.125 239.775,134.400 239.458 C 133.415 239.277,133.178 239.318,133.600 239.594 M140.231 239.502 C 139.736 239.998,140.039 240.315,140.813 240.112 C 141.291 239.987,141.958 240.200,142.430 240.627 C 143.144 241.273,143.205 241.279,142.974 240.678 C 142.814 240.259,142.909 240.000,143.224 240.000 C 143.504 240.000,143.619 239.885,143.479 239.745 C 143.139 239.405,140.524 239.210,140.231 239.502 M189.179 239.825 C 188.725 240.373,188.793 240.417,189.730 240.182 C 190.425 240.008,190.800 240.074,190.800 240.372 C 190.800 240.691,190.971 240.673,191.358 240.316 C 191.665 240.032,191.834 239.665,191.734 239.500 C 191.411 238.966,189.713 239.182,189.179 239.825 M198.800 239.595 C 198.470 239.786,197.855 240.051,197.433 240.184 C 196.893 240.355,196.792 240.552,197.090 240.850 C 197.389 241.149,197.771 241.137,198.383 240.809 C 199.028 240.464,199.391 240.460,199.794 240.795 C 200.230 241.157,200.292 241.075,200.110 240.377 C 199.912 239.619,200.004 239.543,200.841 239.781 C 201.579 239.990,201.662 239.955,201.200 239.632 C 200.485 239.132,199.622 239.118,198.800 239.595 M231.311 239.700 C 230.650 240.555,230.290 241.462,230.914 240.700 C 231.646 239.808,232.299 239.813,233.136 240.719 C 233.501 241.114,233.632 241.191,233.426 240.888 C 233.178 240.524,233.223 240.233,233.559 240.025 C 233.946 239.786,233.908 239.650,233.401 239.456 C 232.394 239.069,231.740 239.146,231.311 239.700 M256.830 239.764 C 256.541 240.112,256.509 240.420,256.746 240.567 C 256.958 240.698,257.214 240.579,257.314 240.302 C 257.451 239.922,257.679 239.908,258.254 240.245 C 258.827 240.581,259.130 240.565,259.489 240.181 C 259.859 239.785,259.828 239.620,259.349 239.436 C 258.319 239.041,257.323 239.170,256.830 239.764 M267.600 239.557 C 267.600 240.007,268.640 240.426,268.961 240.106 C 269.442 239.624,269.180 239.200,268.400 239.200 C 267.960 239.200,267.600 239.361,267.600 239.557 M278.457 239.556 C 278.159 239.745,278.071 239.997,278.262 240.115 C 278.453 240.233,278.956 240.075,279.381 239.765 C 280.244 239.133,279.419 238.947,278.457 239.556 M299.677 239.788 C 298.926 240.202,298.870 240.341,299.377 240.536 C 299.720 240.667,300.000 240.588,300.000 240.359 C 300.000 240.130,300.405 239.976,300.900 240.016 C 302.649 240.157,303.078 240.038,302.400 239.600 C 301.625 239.099,300.825 239.154,299.677 239.788 M316.000 239.600 C 316.000 239.820,316.270 240.000,316.600 240.000 C 316.930 240.000,317.200 240.187,317.200 240.416 C 317.200 240.655,317.435 240.613,317.756 240.316 C 318.158 239.942,318.186 239.719,317.856 239.506 C 317.189 239.076,316.000 239.136,316.000 239.600 M325.814 239.577 C 325.508 240.072,325.441 240.042,327.100 240.131 C 327.816 240.169,328.341 240.020,328.269 239.800 C 328.086 239.241,326.132 239.063,325.814 239.577 M342.075 240.200 C 341.597 240.750,341.390 241.200,341.615 241.200 C 341.841 241.200,342.129 240.930,342.255 240.600 C 342.602 239.696,343.445 239.876,344.371 241.054 C 344.827 241.634,345.200 241.963,345.200 241.785 C 345.200 241.608,344.902 241.134,344.538 240.731 C 343.919 240.047,343.925 240.000,344.638 239.994 C 345.276 239.989,345.303 239.925,344.800 239.600 C 343.813 238.962,342.994 239.143,342.075 240.200 M351.000 239.600 C 350.864 239.820,350.358 240.018,349.876 240.040 C 349.069 240.077,349.079 240.102,350.000 240.368 C 350.550 240.526,351.109 240.494,351.243 240.297 C 351.376 240.100,351.736 239.974,352.043 240.017 C 353.340 240.198,353.845 240.017,353.200 239.600 C 352.418 239.094,351.312 239.094,351.000 239.600 M82.390 239.863 C 83.146 240.238,82.810 240.748,81.700 240.912 C 80.662 241.065,80.668 241.072,81.800 241.037 C 82.995 241.000,83.549 239.978,82.490 239.763 C 82.209 239.707,82.165 239.751,82.390 239.863 M86.900 239.852 C 87.511 240.032,87.600 240.611,87.600 244.406 C 87.600 246.797,87.735 248.837,87.900 248.939 C 88.065 249.042,88.110 247.030,88.000 244.467 C 87.816 240.177,87.737 239.802,87.000 239.727 C 86.377 239.664,86.355 239.692,86.900 239.852 M94.797 239.897 C 95.565 239.989,96.327 240.275,96.490 240.533 C 96.716 240.888,96.789 240.887,96.794 240.528 C 96.797 240.268,97.205 239.978,97.700 239.882 C 98.195 239.787,97.430 239.713,96.000 239.718 C 94.570 239.724,94.028 239.804,94.797 239.897 M99.057 240.000 C 99.308 240.330,99.602 240.960,99.711 241.400 C 99.897 242.160,99.910 242.157,99.954 241.349 C 99.979 240.881,99.685 240.251,99.300 239.949 C 98.691 239.472,98.660 239.478,99.057 240.000 M103.632 240.275 C 103.650 240.695,103.748 240.789,103.865 240.500 C 103.976 240.225,104.495 240.000,105.019 240.000 C 105.943 240.000,105.975 240.108,106.107 243.700 L 106.243 247.400 106.222 243.600 L 106.200 239.800 104.900 239.675 C 103.856 239.574,103.606 239.692,103.632 240.275 M149.200 239.885 C 149.530 240.007,149.986 240.253,150.213 240.431 C 150.441 240.609,150.891 240.568,151.213 240.339 C 151.699 239.996,151.682 239.962,151.113 240.145 C 150.735 240.266,150.319 240.193,150.189 239.983 C 150.059 239.772,149.648 239.614,149.276 239.632 C 148.726 239.657,148.712 239.705,149.200 239.885 M160.909 241.200 C 160.909 242.190,160.987 242.595,161.082 242.100 C 161.178 241.605,161.178 240.795,161.082 240.300 C 160.987 239.805,160.909 240.210,160.909 241.200 M218.705 239.883 C 219.202 239.979,219.922 239.975,220.305 239.875 C 220.687 239.775,220.280 239.696,219.400 239.701 C 218.520 239.705,218.207 239.787,218.705 239.883 M224.645 239.928 C 224.533 240.108,224.974 240.177,225.625 240.082 C 226.275 239.986,227.121 240.154,227.504 240.454 C 228.134 240.948,228.148 240.934,227.651 240.300 C 227.093 239.588,225.014 239.331,224.645 239.928 M53.667 244.276 C 53.630 246.738,53.735 248.837,53.900 248.940 C 54.065 249.042,54.152 247.658,54.092 245.863 C 53.907 240.256,53.737 239.621,53.667 244.276 M60.521 240.317 C 60.205 240.517,60.169 240.822,60.415 241.211 C 60.620 241.535,60.804 241.710,60.824 241.600 C 60.845 241.490,60.922 241.085,60.995 240.700 C 61.148 239.901,61.160 239.911,60.521 240.317 M84.933 240.631 C 84.795 240.990,85.007 241.551,85.423 241.931 C 86.111 242.559,86.124 242.558,85.633 241.905 C 85.346 241.523,85.215 240.938,85.343 240.605 C 85.470 240.272,85.485 240.000,85.375 240.000 C 85.265 240.000,85.066 240.284,84.933 240.631 M276.200 241.047 C 276.200 241.617,276.341 241.819,276.576 241.584 C 277.130 241.030,277.179 240.133,276.655 240.133 C 276.405 240.133,276.200 240.544,276.200 241.047 M287.867 240.267 C 287.381 240.753,287.590 241.200,288.300 241.194 C 288.848 241.189,288.881 241.113,288.455 240.842 C 287.994 240.551,287.994 240.463,288.455 240.280 C 288.755 240.161,288.805 240.049,288.567 240.032 C 288.328 240.014,288.013 240.120,287.867 240.267 M334.389 240.259 C 334.052 240.350,333.560 240.772,333.294 241.197 C 332.892 241.842,332.911 241.932,333.411 241.740 C 333.741 241.614,334.323 241.756,334.705 242.055 C 335.324 242.540,335.344 242.528,334.886 241.942 C 334.461 241.398,334.483 241.174,335.015 240.642 C 335.654 240.003,335.555 239.942,334.389 240.259 M93.052 241.116 C 92.944 241.290,93.473 241.361,94.228 241.273 C 94.983 241.185,95.600 241.042,95.600 240.956 C 95.600 240.655,93.245 240.803,93.052 241.116 M97.596 243.918 L 97.792 247.000 97.916 244.240 C 97.984 242.721,97.895 241.335,97.720 241.158 C 97.544 240.981,97.488 242.223,97.596 243.918 M208.252 241.116 C 208.144 241.290,208.673 241.361,209.428 241.273 C 210.183 241.185,210.800 241.042,210.800 240.956 C 210.800 240.655,208.445 240.803,208.252 241.116 M68.893 242.400 C 68.893 243.170,68.975 243.485,69.076 243.100 C 69.176 242.715,69.176 242.085,69.076 241.700 C 68.975 241.315,68.893 241.630,68.893 242.400 M224.772 242.000 C 224.653 242.550,224.656 243.400,224.778 243.890 L 225.000 244.779 225.463 243.789 C 225.717 243.245,225.774 242.892,225.590 243.006 C 225.405 243.120,225.194 242.716,225.121 242.107 L 224.987 241.000 224.772 242.000 M109.314 243.400 C 109.317 244.500,109.395 244.903,109.487 244.295 C 109.579 243.686,109.577 242.786,109.482 242.295 C 109.387 241.803,109.311 242.300,109.314 243.400 M131.340 244.800 C 131.340 246.670,131.409 247.435,131.493 246.500 C 131.577 245.565,131.577 244.035,131.493 243.100 C 131.409 242.165,131.340 242.930,131.340 244.800 M213.100 241.999 C 213.710 242.684,213.788 248.640,213.190 248.937 C 212.965 249.049,213.010 249.094,213.290 249.038 C 214.181 248.859,214.203 242.654,213.315 241.981 C 212.705 241.518,212.673 241.521,213.100 241.999 M328.901 243.000 C 328.905 243.880,328.987 244.193,329.083 243.695 C 329.179 243.198,329.175 242.478,329.075 242.095 C 328.975 241.713,328.896 242.120,328.901 243.000 M340.992 242.475 C 341.108 243.067,341.022 243.663,340.801 243.799 C 340.581 243.936,340.425 244.532,340.454 245.124 L 340.509 246.200 340.695 245.200 C 340.938 243.890,341.437 243.614,343.567 243.606 C 344.538 243.603,345.206 243.472,345.050 243.316 C 344.894 243.160,344.053 243.084,343.181 243.147 C 341.849 243.243,341.532 243.113,341.189 242.331 C 340.799 241.440,340.791 241.446,340.992 242.475 M348.202 241.997 C 348.067 242.215,348.124 242.693,348.328 243.058 C 348.631 243.598,348.700 243.524,348.700 242.661 C 348.700 241.521,348.588 241.372,348.202 241.997 M64.797 245.482 C 64.689 247.507,64.743 249.020,64.917 248.845 C 65.092 248.669,65.180 247.012,65.114 245.163 L 64.994 241.800 64.797 245.482 M148.352 243.287 C 148.537 244.398,148.593 244.455,148.719 243.654 C 148.801 243.133,148.703 242.543,148.501 242.341 C 148.279 242.119,148.221 242.493,148.352 243.287 M233.600 242.640 C 233.600 243.152,233.245 243.252,231.833 243.140 C 230.861 243.063,230.138 243.072,230.227 243.160 C 230.315 243.249,230.075 243.574,229.694 243.883 C 229.067 244.390,229.085 244.403,229.874 244.022 C 230.354 243.790,231.479 243.600,232.374 243.600 C 233.733 243.600,234.000 243.469,234.000 242.800 C 234.000 242.360,233.910 242.000,233.800 242.000 C 233.690 242.000,233.600 242.288,233.600 242.640 M255.730 242.681 C 255.832 243.165,255.709 243.662,255.458 243.785 C 255.206 243.908,255.450 243.919,256.000 243.810 C 256.550 243.700,257.705 243.608,258.567 243.605 C 259.428 243.602,260.006 243.472,259.850 243.316 C 259.694 243.160,258.870 243.083,258.019 243.144 C 256.875 243.227,256.350 243.066,256.008 242.528 C 255.585 241.864,255.561 241.877,255.730 242.681 M122.977 242.838 C 122.828 243.078,122.277 243.193,121.753 243.093 C 121.229 242.993,120.800 243.066,120.800 243.255 C 120.800 243.837,122.671 243.637,123.200 243.000 C 123.474 242.670,123.597 242.400,123.473 242.400 C 123.349 242.400,123.125 242.597,122.977 242.838 M138.267 242.667 C 137.900 243.033,137.929 246.709,138.300 246.938 C 138.465 247.040,138.600 246.061,138.600 244.762 C 138.600 243.463,138.585 242.400,138.567 242.400 C 138.548 242.400,138.413 242.520,138.267 242.667 M188.234 243.051 C 188.291 243.299,188.172 243.704,187.969 243.951 C 187.709 244.268,187.742 244.282,188.080 244.000 C 188.344 243.780,189.418 243.600,190.467 243.600 C 192.098 243.600,192.337 243.501,192.114 242.920 C 191.951 242.495,191.793 242.420,191.693 242.720 C 191.521 243.238,188.575 243.394,188.299 242.900 C 188.207 242.735,188.178 242.803,188.234 243.051 M282.940 245.600 C 282.940 247.470,283.009 248.235,283.093 247.300 C 283.177 246.365,283.177 244.835,283.093 243.900 C 283.009 242.965,282.940 243.730,282.940 245.600 M79.720 244.800 C 79.720 246.010,79.795 246.505,79.887 245.900 C 79.978 245.295,79.978 244.305,79.887 243.700 C 79.795 243.095,79.720 243.590,79.720 244.800 M181.660 245.676 C 181.627 247.368,181.735 248.837,181.900 248.939 C 182.065 249.042,182.149 248.107,182.087 246.863 C 181.892 242.956,181.722 242.485,181.660 245.676 M285.196 245.882 C 285.088 247.687,285.143 249.020,285.319 248.843 C 285.494 248.667,285.582 247.190,285.515 245.561 L 285.393 242.600 285.196 245.882 M294.060 245.676 C 294.027 247.368,294.135 248.837,294.300 248.939 C 294.465 249.042,294.549 248.107,294.487 246.863 C 294.292 242.956,294.122 242.485,294.060 245.676 M335.196 245.882 C 335.088 247.687,335.143 249.020,335.319 248.843 C 335.494 248.667,335.582 247.190,335.515 245.561 L 335.393 242.600 335.196 245.882 M185.709 245.200 C 185.709 246.190,185.787 246.595,185.882 246.100 C 185.978 245.605,185.978 244.795,185.882 244.300 C 185.787 243.805,185.709 244.210,185.709 245.200 M247.724 246.600 C 247.726 247.920,247.801 248.412,247.890 247.693 C 247.979 246.974,247.977 245.894,247.886 245.293 C 247.795 244.692,247.722 245.280,247.724 246.600 M148.520 246.800 C 148.520 248.010,148.595 248.505,148.687 247.900 C 148.778 247.295,148.778 246.305,148.687 245.700 C 148.595 245.095,148.520 245.590,148.520 246.800 M325.761 246.295 C 325.894 246.427,325.686 246.893,325.301 247.329 C 324.604 248.119,324.607 248.119,325.800 247.383 C 326.460 246.976,327.052 246.611,327.116 246.572 C 327.180 246.533,326.847 246.401,326.376 246.278 C 325.906 246.155,325.629 246.162,325.761 246.295 M352.859 246.600 C 353.221 247.040,353.605 247.760,353.712 248.200 C 353.900 248.969,353.909 248.968,353.954 248.162 C 353.979 247.701,353.595 246.981,353.100 246.562 C 352.207 245.806,352.205 245.807,352.859 246.600 M176.098 247.125 C 176.154 247.451,175.950 247.804,175.644 247.910 C 175.273 248.040,175.194 247.934,175.406 247.590 C 175.610 247.261,175.564 247.175,175.279 247.351 C 175.035 247.502,174.938 247.894,175.064 248.223 C 175.245 248.694,175.415 248.720,175.869 248.343 C 176.845 247.533,177.236 246.533,176.576 246.533 C 176.257 246.533,176.042 246.800,176.098 247.125 M68.956 247.371 C 68.596 248.308,68.957 249.726,69.600 249.899 C 70.094 250.032,70.102 249.993,69.648 249.675 C 69.301 249.432,69.164 248.827,69.279 248.044 C 69.472 246.729,69.322 246.417,68.956 247.371 M292.054 247.676 C 292.025 248.268,291.820 248.864,291.600 249.000 C 291.380 249.136,291.200 249.457,291.200 249.713 C 291.200 249.969,291.482 249.775,291.827 249.283 C 292.172 248.790,292.376 247.985,292.281 247.494 C 292.132 246.719,292.102 246.743,292.054 247.676 M122.694 248.503 L 121.988 249.800 122.794 248.856 C 123.480 248.052,123.846 247.194,123.500 247.203 C 123.445 247.204,123.082 247.789,122.694 248.503 M348.038 247.400 C 348.024 247.620,348.187 248.070,348.400 248.400 C 348.699 248.863,348.789 248.876,348.794 248.457 C 348.798 248.119,349.048 248.009,349.457 248.166 C 350.013 248.380,350.034 248.323,349.592 247.790 C 349.217 247.338,348.990 247.292,348.784 247.626 C 348.575 247.964,348.438 247.942,348.280 247.545 C 348.161 247.245,348.052 247.180,348.038 247.400 M111.212 247.851 C 111.193 248.563,112.291 249.284,113.081 249.079 C 113.657 248.930,113.626 248.884,112.920 248.846 C 112.436 248.821,111.856 248.485,111.632 248.100 C 111.408 247.715,111.219 247.603,111.212 247.851 M260.983 248.027 C 260.785 248.347,260.841 248.422,261.138 248.238 C 261.392 248.081,261.600 248.143,261.600 248.376 C 261.600 248.609,261.420 248.800,261.200 248.800 C 260.980 248.800,260.800 249.019,260.800 249.286 C 260.800 249.590,261.056 249.516,261.483 249.089 C 261.977 248.594,262.045 248.285,261.728 247.968 C 261.411 247.651,261.206 247.667,260.983 248.027 M70.627 248.887 C 71.336 249.885,73.596 250.564,73.000 249.600 C 72.864 249.380,72.463 249.200,72.108 249.200 C 71.753 249.200,71.101 248.885,70.659 248.500 C 69.856 247.801,69.856 247.802,70.627 248.887 M80.352 248.912 C 80.545 249.105,81.219 249.198,81.851 249.119 C 82.909 248.987,82.881 248.959,81.500 248.768 C 80.640 248.649,80.150 248.710,80.352 248.912 M203.003 248.805 C 203.137 249.022,203.492 249.200,203.790 249.200 C 204.089 249.200,204.425 249.385,204.537 249.610 C 204.649 249.836,204.699 249.808,204.649 249.548 C 204.600 249.289,204.154 248.927,203.659 248.744 C 203.088 248.532,202.849 248.555,203.003 248.805 M270.600 248.846 L 269.400 249.105 270.620 249.153 C 271.291 249.179,272.053 249.413,272.313 249.673 C 272.574 249.934,272.874 250.059,272.981 249.952 C 273.501 249.433,271.718 248.605,270.600 248.846 M94.507 249.087 C 95.174 249.188,95.507 249.427,95.345 249.689 C 95.183 249.951,95.263 250.008,95.545 249.834 C 96.289 249.374,95.653 248.794,94.476 248.860 L 93.400 248.920 94.507 249.087 M102.702 249.066 C 102.979 249.177,103.119 249.407,103.015 249.576 C 102.910 249.746,103.285 249.796,103.849 249.689 C 105.029 249.463,104.362 248.794,103.000 248.838 C 102.560 248.852,102.426 248.954,102.702 249.066 M169.700 249.087 C 170.305 249.178,171.295 249.178,171.900 249.087 C 172.505 248.995,172.010 248.920,170.800 248.920 C 169.590 248.920,169.095 248.995,169.700 249.087 M199.733 249.413 C 199.733 249.826,199.865 249.895,200.137 249.623 C 200.409 249.351,200.747 249.379,201.170 249.710 C 201.726 250.142,201.735 250.117,201.251 249.500 C 200.574 248.636,199.733 248.588,199.733 249.413 M315.078 249.577 C 315.196 250.030,315.452 250.400,315.647 250.400 C 316.186 250.400,316.068 249.754,315.431 249.226 C 314.965 248.839,314.902 248.902,315.078 249.577 M352.396 249.405 C 352.078 249.789,351.730 249.876,351.447 249.645 C 351.168 249.417,350.821 249.475,350.522 249.799 C 350.147 250.207,350.190 250.354,350.722 250.484 C 351.539 250.684,352.961 249.969,353.100 249.289 C 353.234 248.635,353.004 248.673,352.396 249.405 M326.500 249.487 C 327.105 249.578,328.095 249.578,328.700 249.487 C 329.305 249.395,328.810 249.320,327.600 249.320 C 326.390 249.320,325.895 249.395,326.500 249.487 M299.789 250.017 C 299.659 250.228,299.639 250.400,299.744 250.400 C 299.849 250.400,300.219 250.509,300.567 250.643 C 300.915 250.776,301.200 250.706,301.200 250.486 C 301.200 249.926,300.076 249.553,299.789 250.017 M118.705 250.283 C 119.202 250.379,119.922 250.375,120.305 250.275 C 120.687 250.175,120.280 250.096,119.400 250.101 C 118.520 250.105,118.207 250.187,118.705 250.283 M247.900 250.282 C 248.395 250.378,249.205 250.378,249.700 250.282 C 250.195 250.187,249.790 250.109,248.800 250.109 C 247.810 250.109,247.405 250.187,247.900 250.282 M284.705 250.283 C 285.202 250.379,285.922 250.375,286.305 250.275 C 286.687 250.175,286.280 250.096,285.400 250.101 C 284.520 250.105,284.207 250.187,284.705 250.283 M169.300 250.676 C 169.685 250.776,170.315 250.776,170.700 250.676 C 171.085 250.575,170.770 250.493,170.000 250.493 C 169.230 250.493,168.915 250.575,169.300 250.676 M323.484 251.200 C 323.599 251.640,323.941 252.000,324.243 252.000 C 324.663 252.000,324.632 251.813,324.107 251.200 C 323.730 250.760,323.389 250.400,323.349 250.400 C 323.308 250.400,323.369 250.760,323.484 251.200 M330.032 255.500 C 330.013 255.795,329.386 256.022,328.500 256.053 L 327.000 256.105 328.400 256.375 C 329.930 256.671,330.609 256.367,330.277 255.535 C 330.121 255.145,330.055 255.135,330.032 255.500 " stroke="none" fill="#ffd50d" fill-rule="evenodd"></path><path id="path1" d="M0.000 200.000 L 0.000 400.000 200.000 400.000 L 400.000 400.000 400.000 200.000 L 400.000 0.000 200.000 0.000 L 0.000 0.000 0.000 200.000 M354.608 154.144 C 354.799 154.955,355.101 156.855,355.984 162.800 C 356.196 164.230,356.539 166.286,356.746 167.369 C 357.162 169.544,357.033 170.225,356.140 170.568 C 355.401 170.851,354.001 170.144,353.998 169.486 C 353.993 167.836,349.977 161.508,348.485 160.799 C 344.868 159.079,332.162 158.614,331.768 160.186 C 331.632 160.729,331.583 172.410,331.660 186.144 C 331.824 215.338,331.383 212.800,336.288 212.800 C 339.880 212.800,340.800 213.211,340.800 214.814 C 340.800 215.466,340.665 216.020,340.500 216.044 C 339.563 216.182,315.315 216.214,314.900 216.078 C 314.625 215.988,314.400 215.307,314.400 214.565 C 314.400 212.962,314.706 212.849,319.400 212.701 L 322.600 212.600 323.072 211.200 C 323.412 210.188,323.552 202.788,323.577 184.500 L 323.611 159.200 319.305 159.214 C 308.230 159.251,305.472 160.571,302.184 167.407 C 300.741 170.406,300.675 170.475,299.482 170.236 C 297.784 169.897,297.774 169.868,298.539 167.295 C 298.914 166.033,299.384 164.370,299.583 163.600 C 300.405 160.415,301.250 157.325,301.613 156.172 C 301.826 155.496,302.000 154.635,302.000 154.259 C 302.000 153.102,303.114 153.064,305.327 154.147 C 310.934 156.890,346.442 156.793,351.400 154.021 C 353.579 152.803,354.299 152.830,354.608 154.144 M127.800 153.784 C 129.340 154.104,131.429 154.578,132.443 154.837 C 134.122 155.267,134.390 155.231,135.465 154.437 C 137.362 153.034,137.856 153.569,138.127 157.322 C 138.257 159.125,138.557 162.310,138.794 164.400 C 139.589 171.411,137.983 172.355,135.185 166.521 C 129.681 155.044,116.554 153.236,113.170 163.489 C 110.787 170.711,115.748 175.689,129.600 179.978 C 134.306 181.435,139.304 185.961,140.943 190.250 C 142.894 195.357,141.994 205.663,139.368 208.289 C 139.055 208.602,138.800 209.005,138.800 209.185 C 138.800 210.023,134.515 213.687,132.285 214.755 C 126.335 217.606,117.550 217.221,111.600 213.849 C 110.830 213.413,109.570 212.721,108.800 212.311 L 107.400 211.567 106.371 212.784 C 104.455 215.048,103.459 214.049,103.793 210.200 C 105.082 195.357,104.972 195.926,106.523 196.076 C 107.614 196.182,107.818 196.375,107.925 197.400 C 109.014 207.858,117.553 214.808,126.120 212.209 C 134.008 209.815,136.225 199.884,130.209 193.885 C 128.968 192.647,122.769 189.200,121.784 189.200 C 120.962 189.200,112.000 184.736,112.000 184.326 C 112.000 184.147,111.821 184.000,111.603 184.000 C 110.610 184.000,107.266 180.596,106.085 178.382 C 98.737 164.616,111.326 150.355,127.800 153.784 M179.833 153.613 C 184.419 154.414,186.233 154.909,189.541 156.263 C 193.091 157.716,193.822 157.653,194.076 155.871 C 194.206 154.955,195.787 154.427,196.441 155.081 C 196.632 155.272,196.984 157.132,197.222 159.214 C 199.152 176.104,199.095 174.639,197.835 174.956 C 196.698 175.241,196.000 175.012,196.000 174.353 C 196.000 171.105,188.196 161.369,183.800 159.132 C 173.861 154.074,162.258 158.011,157.940 167.905 C 151.219 183.309,157.527 203.933,170.600 209.295 C 175.352 211.244,185.499 210.690,188.180 208.334 C 188.389 208.150,188.803 208.000,189.099 208.000 C 190.578 208.000,196.181 203.526,197.803 201.051 C 198.476 200.025,199.262 200.024,200.300 201.049 C 202.505 203.227,192.200 212.359,184.400 215.140 C 177.193 217.709,165.009 216.667,159.172 212.983 C 158.316 212.442,157.500 212.000,157.359 212.000 C 156.691 212.000,151.801 207.609,150.394 205.746 C 142.678 195.525,141.662 180.405,147.908 168.739 C 148.728 167.206,149.670 165.646,150.000 165.272 C 150.330 164.898,151.286 163.740,152.125 162.699 C 155.299 158.757,163.680 154.094,167.800 153.978 C 168.460 153.959,169.360 153.789,169.800 153.600 C 170.931 153.114,177.021 153.122,179.833 153.613 M69.922 156.111 L 69.800 157.800 66.800 157.918 C 61.303 158.134,61.278 158.227,61.228 178.020 C 61.185 195.664,61.897 202.318,64.227 206.033 C 67.369 211.044,74.516 213.236,81.140 211.221 C 92.026 207.911,94.050 200.360,92.246 169.791 C 91.604 158.917,91.251 158.000,87.705 158.000 C 85.239 158.000,84.287 157.348,84.466 155.780 L 84.600 154.600 90.400 154.537 C 93.590 154.503,98.059 154.425,100.331 154.365 C 104.548 154.252,105.177 154.454,105.194 155.926 C 105.212 157.472,104.402 158.000,102.015 158.000 C 98.026 158.000,98.180 157.399,97.855 174.271 C 97.365 199.759,96.642 204.032,91.905 209.414 C 82.154 220.490,59.272 218.648,53.438 206.317 C 51.019 201.203,50.455 194.845,50.411 172.200 C 50.384 158.037,50.433 158.250,47.190 158.096 C 43.439 157.919,43.200 157.794,43.200 156.022 C 43.200 154.043,42.079 154.179,57.288 154.311 L 70.045 154.422 69.922 156.111 M236.100 155.991 C 236.265 155.996,236.400 156.611,236.400 157.357 C 236.400 158.972,235.976 159.195,232.867 159.213 C 228.631 159.236,229.000 156.680,229.000 186.000 C 229.000 215.582,228.535 212.765,233.420 212.787 C 235.063 212.795,236.440 213.000,236.720 213.280 C 237.314 213.874,237.349 215.461,236.775 215.816 C 236.464 216.008,217.093 216.161,211.676 216.014 C 211.317 216.004,211.191 215.528,211.276 214.500 L 211.400 213.000 215.000 212.800 C 220.298 212.506,220.043 212.855,220.433 205.355 C 220.858 197.169,220.858 174.831,220.433 166.645 C 220.042 159.120,220.322 159.491,214.800 159.200 L 211.000 159.000 210.870 157.642 C 210.799 156.895,210.917 156.175,211.132 156.042 C 211.412 155.869,230.711 155.830,236.100 155.991 M274.400 155.985 C 277.610 156.409,280.476 157.122,280.980 157.623 C 281.189 157.830,281.655 158.000,282.016 158.000 C 282.377 158.000,283.787 158.557,285.149 159.238 C 287.913 160.619,288.545 160.473,289.011 158.349 C 289.217 157.414,289.461 157.181,290.137 157.277 C 291.072 157.410,291.106 157.553,291.964 165.000 C 292.192 166.980,292.559 169.320,292.780 170.200 C 293.507 173.103,293.322 175.875,292.384 176.120 C 291.514 176.348,290.000 175.075,290.000 174.117 C 290.000 173.824,289.591 172.913,289.091 172.092 C 288.591 171.271,287.916 170.066,287.591 169.414 C 286.334 166.890,281.124 162.187,277.780 160.557 C 270.691 157.102,259.477 159.218,255.140 164.829 C 254.623 165.497,253.903 166.402,253.539 166.838 C 253.175 167.275,252.396 168.660,251.806 169.916 C 249.963 173.842,250.072 173.495,249.142 178.400 C 248.666 180.912,248.936 190.387,249.536 192.200 C 249.754 192.860,250.146 194.120,250.406 195.000 C 250.896 196.655,253.159 201.647,253.580 202.000 C 253.711 202.110,254.155 202.728,254.567 203.374 C 262.491 215.803,279.991 216.636,291.264 205.121 C 294.089 202.236,294.418 202.058,295.191 202.989 C 296.991 205.158,287.389 213.810,280.200 216.497 C 276.621 217.835,275.510 218.000,270.104 218.000 C 255.016 218.000,245.472 210.934,241.470 196.800 C 234.780 173.174,251.130 152.909,274.400 155.985 M257.340 234.100 C 257.614 236.229,256.709 236.865,256.013 235.033 C 255.719 234.262,255.181 233.970,253.349 233.589 C 249.994 232.893,249.958 232.983,250.091 241.589 L 250.200 248.600 251.500 248.983 C 253.329 249.521,253.121 249.854,250.762 250.167 C 247.244 250.634,243.368 249.666,246.359 249.068 L 247.519 248.836 247.768 244.318 C 248.114 238.024,247.894 234.031,247.177 233.578 C 246.140 232.922,242.000 233.981,242.000 234.901 C 242.000 235.188,241.617 235.750,241.149 236.151 L 240.297 236.880 240.581 234.989 C 241.070 231.728,240.787 231.883,245.760 232.152 C 248.202 232.285,251.640 232.251,253.400 232.078 C 257.140 231.710,257.026 231.651,257.340 234.100 M55.800 232.401 C 55.937 232.621,55.602 232.971,55.056 233.179 C 53.302 233.846,53.343 248.878,55.100 249.128 C 57.415 249.457,55.608 250.000,52.200 250.000 C 49.933 250.000,48.400 249.839,48.400 249.600 C 48.400 249.380,48.747 249.200,49.171 249.200 C 50.979 249.200,51.200 248.354,51.195 241.471 C 51.188 233.764,51.109 233.362,49.538 233.048 C 48.879 232.916,48.459 232.629,48.597 232.405 C 48.922 231.879,55.476 231.876,55.800 232.401 M139.128 233.102 C 139.298 234.298,138.259 234.662,137.011 233.844 C 135.395 232.785,134.676 233.105,133.695 235.319 C 132.559 237.884,133.175 239.600,135.233 239.600 C 136.578 239.600,136.073 240.697,134.600 240.974 L 133.200 241.236 133.200 244.975 C 133.200 248.629,133.223 248.719,134.200 248.964 C 136.136 249.450,135.181 250.000,132.400 250.000 C 129.726 250.000,128.698 249.529,130.400 249.084 C 131.661 248.754,131.615 241.507,130.348 240.942 C 129.555 240.588,129.542 240.515,130.156 239.901 C 130.519 239.538,131.106 238.286,131.459 237.120 C 132.716 232.977,138.667 229.858,139.128 233.102 M172.451 232.427 C 172.891 232.663,173.787 232.870,174.444 232.889 C 175.837 232.928,176.215 233.495,176.611 236.135 C 176.911 238.136,175.596 238.277,174.972 236.310 C 173.989 233.215,168.370 232.166,165.810 234.600 C 162.549 237.701,163.311 245.231,167.163 247.974 C 169.355 249.535,174.740 248.764,176.054 246.701 C 176.193 246.482,176.553 246.390,176.854 246.498 C 177.882 246.866,174.229 249.790,172.038 250.351 C 161.598 253.027,156.348 237.775,166.000 232.808 C 167.580 231.995,171.240 231.779,172.451 232.427 M276.000 236.157 C 276.000 240.467,276.048 240.558,277.910 239.780 C 281.287 238.369,283.200 240.615,283.200 245.988 C 283.200 249.148,283.230 249.251,284.100 249.128 C 285.107 248.985,285.716 243.156,284.818 242.258 C 284.129 241.569,284.339 240.858,285.448 240.131 C 286.424 239.493,286.531 239.491,286.982 240.108 C 287.249 240.473,287.633 240.635,287.834 240.468 C 291.455 237.457,294.252 239.780,294.353 245.880 C 294.390 248.170,294.543 248.840,295.097 249.150 C 295.996 249.653,295.757 249.834,293.800 250.132 C 291.890 250.422,290.817 249.943,291.510 249.109 C 292.085 248.416,292.447 244.687,292.133 242.695 C 291.741 240.204,288.485 240.032,287.640 242.457 C 286.920 244.523,287.074 248.419,287.899 249.023 C 289.084 249.889,288.089 250.201,284.185 250.185 C 280.217 250.170,279.410 249.920,280.576 249.067 C 282.539 247.631,280.798 240.800,278.470 240.800 C 276.127 240.800,274.575 247.963,276.664 249.132 C 277.263 249.467,277.250 249.545,276.520 249.936 C 275.629 250.413,272.902 250.127,272.070 249.470 C 271.710 249.186,271.452 249.183,271.270 249.460 C 270.099 251.234,265.566 250.599,264.033 248.447 C 262.158 245.813,263.835 240.000,266.470 240.000 C 267.460 240.000,267.388 240.337,266.200 241.271 C 263.061 243.741,266.425 249.893,270.326 248.816 C 271.324 248.541,271.846 248.551,272.030 248.849 C 272.176 249.085,272.634 249.214,273.048 249.134 C 274.092 248.934,274.438 235.343,273.409 234.948 C 272.372 234.550,272.735 233.376,274.100 232.721 C 275.919 231.847,276.000 231.993,276.000 236.157 M310.000 240.661 C 310.000 248.538,310.033 248.883,310.800 249.084 C 312.903 249.634,310.595 250.457,307.946 250.102 C 306.267 249.877,305.929 249.416,307.200 249.084 C 308.273 248.803,308.463 235.463,307.400 235.055 C 306.346 234.651,306.727 233.380,308.100 232.721 C 310.011 231.803,310.000 231.757,310.000 240.661 M87.467 234.631 C 87.817 235.543,86.670 236.540,85.645 236.214 C 84.838 235.958,84.503 234.830,85.067 234.267 C 85.579 233.755,87.227 234.005,87.467 234.631 M215.000 235.200 C 215.000 235.933,214.759 236.234,214.098 236.328 C 213.115 236.468,212.557 235.610,212.955 234.572 C 213.361 233.516,215.000 234.019,215.000 235.200 M336.945 234.600 C 337.322 235.585,336.779 236.400,335.745 236.400 C 334.710 236.400,334.167 235.585,334.545 234.600 C 334.671 234.270,335.211 234.000,335.745 234.000 C 336.278 234.000,336.818 234.270,336.945 234.600 M80.066 238.400 C 80.174 239.202,80.477 239.440,81.600 239.600 C 83.571 239.882,83.490 240.960,81.485 241.125 L 79.971 241.250 80.085 244.925 L 80.200 248.600 81.500 248.725 C 83.145 248.884,83.216 249.845,81.609 250.198 C 78.605 250.858,78.014 250.022,78.006 245.108 C 78.000 241.278,77.984 241.211,76.987 240.961 L 75.974 240.707 77.687 238.825 C 79.493 236.842,79.849 236.778,80.066 238.400 M96.160 239.600 C 99.791 239.600,100.003 239.813,99.720 243.187 C 99.356 247.528,100.133 249.079,102.560 248.857 C 104.150 248.712,105.404 241.868,104.000 241.000 C 103.032 240.402,103.610 239.550,104.900 239.675 L 106.200 239.800 106.314 243.862 C 106.397 246.835,106.584 248.055,107.014 248.411 C 107.336 248.679,107.600 249.125,107.600 249.402 C 107.600 250.066,105.543 250.448,104.887 249.905 C 104.525 249.605,103.925 249.616,102.841 249.940 C 99.140 251.049,98.028 249.943,97.666 244.792 L 97.400 241.000 95.600 241.108 C 92.778 241.277,92.799 241.249,92.806 244.687 C 92.813 248.292,92.980 248.680,94.601 248.864 C 96.248 249.051,96.106 249.724,94.327 250.164 C 91.472 250.869,90.800 249.922,90.800 245.191 C 90.800 242.996,90.665 241.197,90.500 241.194 C 89.126 241.166,89.239 240.398,90.866 238.704 L 92.600 236.897 92.940 238.248 L 93.279 239.600 96.160 239.600 M111.677 238.534 C 111.774 239.219,112.114 239.426,113.300 239.524 C 115.904 239.740,114.871 241.178,112.100 241.195 C 111.246 241.200,111.200 241.356,111.200 244.226 C 111.200 247.820,111.544 248.609,113.261 248.952 C 114.841 249.268,114.368 249.926,112.321 250.258 C 109.921 250.647,109.200 249.448,109.200 245.069 C 109.200 242.184,109.070 241.393,108.531 240.999 C 107.925 240.556,107.989 240.359,109.215 238.900 C 110.635 237.208,111.470 237.084,111.677 238.534 M208.140 238.400 C 208.339 239.395,208.574 239.600,209.514 239.600 C 211.642 239.600,212.479 240.680,210.595 240.995 C 207.917 241.444,208.000 241.326,208.006 244.687 C 208.013 248.252,208.313 248.955,209.840 248.981 C 211.211 249.005,211.543 249.815,210.316 250.144 C 206.818 251.081,206.000 250.137,206.000 245.165 C 206.000 241.572,205.933 241.233,205.179 240.993 C 204.409 240.749,204.452 240.626,205.879 239.004 C 207.720 236.911,207.836 236.880,208.140 238.400 M65.742 240.181 C 66.324 240.720,66.814 241.485,66.831 241.881 C 66.848 242.276,66.864 243.906,66.866 245.502 C 66.869 247.900,67.002 248.496,67.632 248.938 C 68.693 249.681,68.190 250.000,65.957 250.000 C 64.041 250.000,63.084 249.484,64.202 249.054 C 65.104 248.708,65.072 241.390,64.167 241.043 C 62.805 240.520,61.242 240.805,60.623 241.689 C 59.755 242.927,59.736 248.724,60.598 249.054 C 61.731 249.489,60.748 250.000,58.776 250.000 C 56.862 250.000,56.172 249.526,57.400 249.055 C 58.132 248.774,58.298 242.000,57.572 242.000 C 57.337 242.000,57.202 241.609,57.272 241.131 C 57.427 240.080,59.512 239.211,59.998 239.996 C 60.235 240.381,60.557 240.357,61.451 239.888 C 63.175 238.983,64.551 239.077,65.742 240.181 M74.469 239.862 C 75.206 240.529,75.482 242.000,74.870 242.000 C 74.688 242.000,74.117 241.550,73.600 241.000 C 72.395 239.717,71.479 239.732,70.776 241.045 C 70.175 242.168,71.696 243.993,73.238 243.998 C 74.949 244.003,76.262 246.877,75.304 248.520 C 73.953 250.840,68.800 250.774,68.800 248.436 C 68.800 246.765,69.325 246.632,70.365 248.039 C 71.619 249.735,73.800 249.611,73.800 247.844 C 73.800 247.208,73.530 246.558,73.200 246.400 C 69.420 244.594,68.800 244.023,68.800 242.353 C 68.800 240.055,72.759 238.315,74.469 239.862 M121.576 239.788 C 123.783 240.929,123.883 243.600,121.720 243.600 C 120.946 243.600,120.800 243.391,120.800 242.280 C 120.800 240.076,119.461 239.353,117.963 240.749 C 117.386 241.286,117.230 241.782,117.412 242.505 C 117.554 243.072,117.476 243.630,117.232 243.780 C 115.668 244.747,117.935 248.800,120.041 248.800 C 121.219 248.800,122.749 248.141,123.294 247.400 C 123.478 247.149,123.590 247.178,123.594 247.478 C 123.630 250.261,118.105 251.286,115.967 248.894 C 113.861 246.536,114.774 240.000,117.209 240.000 C 117.618 240.000,118.064 239.820,118.200 239.600 C 118.561 239.016,120.268 239.111,121.576 239.788 M143.481 239.695 C 148.180 241.776,147.530 250.013,142.669 249.996 L 141.400 249.991 142.644 249.011 C 145.784 246.535,144.528 239.677,141.014 240.104 C 138.050 240.465,137.471 247.741,140.307 248.995 C 141.538 249.539,141.425 250.000,140.061 250.000 C 135.934 250.000,134.576 242.150,138.400 240.401 C 138.730 240.250,139.360 239.928,139.800 239.687 C 140.877 239.095,142.132 239.098,143.481 239.695 M154.570 239.867 C 154.924 240.788,154.278 241.313,152.732 241.360 C 150.457 241.430,149.164 247.711,151.200 248.800 C 152.630 249.565,152.050 250.000,149.600 250.000 C 147.264 250.000,146.583 249.585,147.800 248.904 C 148.538 248.491,148.721 243.348,148.043 242.081 C 147.203 240.510,148.799 238.837,150.104 239.920 C 150.490 240.241,150.895 240.213,151.616 239.818 C 152.997 239.061,154.269 239.082,154.570 239.867 M185.757 240.111 C 186.295 240.975,185.437 241.716,184.235 241.426 C 182.058 240.900,180.643 248.001,182.697 249.150 C 183.890 249.818,182.892 250.138,179.900 250.046 C 178.286 249.997,177.896 249.414,179.200 249.000 C 180.222 248.676,180.381 243.857,179.413 242.576 C 178.108 240.852,179.440 239.265,181.530 240.053 C 182.185 240.299,182.718 240.222,183.330 239.792 C 184.381 239.055,185.163 239.158,185.757 240.111 M192.365 239.842 C 195.527 241.420,194.855 243.600,191.206 243.600 C 187.448 243.600,186.551 245.289,188.922 247.900 C 189.769 248.833,192.800 249.224,192.800 248.400 C 192.800 248.180,193.083 248.000,193.429 248.000 C 194.385 248.000,193.947 249.302,192.796 249.884 C 190.399 251.097,187.443 250.240,186.275 247.994 C 184.808 245.172,186.212 240.000,188.446 240.000 C 188.835 240.000,189.264 239.820,189.400 239.600 C 189.760 239.017,190.896 239.110,192.365 239.842 M201.326 239.660 C 202.679 240.372,202.787 240.744,202.794 244.710 C 202.800 248.297,202.833 248.432,203.800 248.800 C 205.111 249.299,205.066 249.829,203.670 250.316 C 202.781 250.625,202.344 250.561,201.620 250.015 C 200.744 249.354,200.625 249.357,199.145 250.072 C 195.886 251.647,194.008 247.451,197.227 245.786 C 198.940 244.900,200.078 245.004,198.866 245.936 C 197.773 246.777,197.763 248.910,198.851 249.117 C 200.530 249.434,201.552 246.042,200.100 244.973 C 199.433 244.482,199.433 244.444,200.100 244.186 C 201.099 243.798,201.038 241.541,200.011 240.900 C 198.868 240.186,197.344 240.980,197.052 242.442 C 196.840 243.502,196.743 243.557,195.833 243.142 C 194.664 242.609,195.332 241.258,197.200 240.378 C 197.750 240.119,198.470 239.759,198.800 239.577 C 199.650 239.109,200.322 239.131,201.326 239.660 M234.441 240.113 C 235.436 240.781,235.834 241.370,235.925 242.313 C 236.063 243.729,236.082 243.722,232.726 243.607 C 229.814 243.508,229.173 244.021,229.752 245.984 C 230.499 248.514,232.779 249.569,234.787 248.315 C 235.781 247.695,236.284 248.176,235.557 249.052 C 233.245 251.837,228.673 250.432,227.602 246.606 C 226.834 243.862,228.497 240.000,230.446 240.000 C 230.835 240.000,231.264 239.820,231.400 239.600 C 231.806 238.942,232.997 239.143,234.441 240.113 M260.441 240.116 C 262.737 241.664,262.415 243.369,259.800 243.501 C 254.856 243.749,254.209 244.406,256.113 247.241 C 257.176 248.824,259.068 249.241,260.607 248.232 C 261.877 247.400,262.382 248.196,261.282 249.296 C 259.432 251.146,255.322 250.530,253.960 248.200 C 252.657 245.971,253.413 241.213,255.200 240.399 C 255.530 240.249,256.160 239.928,256.600 239.687 C 257.852 238.999,258.968 239.123,260.441 240.116 M269.949 239.642 C 271.044 240.024,272.326 241.416,271.932 241.796 C 271.377 242.332,270.315 242.005,269.069 240.912 C 267.002 239.100,267.273 238.709,269.949 239.642 M302.851 239.765 C 307.477 241.703,307.243 250.027,302.564 249.991 L 301.400 249.982 302.253 249.291 C 305.092 246.992,304.069 240.000,300.894 240.000 C 297.789 240.000,296.879 246.495,299.636 248.985 C 301.552 250.716,301.517 250.952,299.452 250.242 C 294.813 248.648,294.527 240.000,299.112 240.000 C 299.574 240.000,300.064 239.820,300.200 239.600 C 300.538 239.053,301.258 239.098,302.851 239.765 M318.527 239.795 C 323.056 241.688,322.873 249.900,318.300 249.987 C 317.455 250.003,317.369 249.264,318.179 248.953 C 320.242 248.161,320.055 241.652,317.950 240.984 C 317.537 240.853,317.200 240.578,317.200 240.373 C 317.200 240.168,316.930 240.000,316.600 240.000 C 316.270 240.000,316.000 239.820,316.000 239.600 C 316.000 239.036,316.870 239.103,318.527 239.795 M328.305 239.538 C 328.687 239.723,329.397 240.080,329.881 240.329 C 330.401 240.597,330.856 240.632,330.991 240.415 C 331.116 240.213,332.159 240.056,333.309 240.066 C 334.459 240.077,335.760 240.022,336.200 239.943 C 336.956 239.808,337.006 240.049,337.113 244.277 C 337.215 248.325,337.301 248.778,338.013 249.004 C 339.196 249.379,338.962 249.869,337.486 250.109 C 335.139 250.489,332.947 249.690,334.600 249.055 C 335.385 248.754,335.474 242.624,334.700 242.124 C 332.884 240.948,330.815 241.901,330.806 243.918 C 330.798 245.767,329.187 247.349,327.655 247.012 C 326.870 246.840,326.251 246.992,325.602 247.518 C 324.279 248.589,324.904 249.200,327.324 249.201 C 334.801 249.203,334.917 256.053,327.454 256.961 C 323.249 257.472,320.314 254.556,322.834 252.370 C 323.588 251.717,323.620 251.513,323.170 250.268 C 322.723 249.032,322.760 248.776,323.529 247.799 C 324.386 246.709,324.386 246.709,323.593 245.701 C 322.138 243.850,323.047 240.000,324.941 240.000 C 325.277 240.000,325.664 239.820,325.800 239.600 C 326.102 239.112,327.364 239.080,328.305 239.538 M345.489 239.989 C 348.259 241.678,347.684 243.600,344.409 243.600 C 341.251 243.600,340.800 243.824,340.800 245.389 C 340.800 248.132,343.679 249.757,345.987 248.315 C 346.960 247.707,347.490 248.169,346.789 249.013 C 345.113 251.032,341.315 250.871,339.614 248.708 C 337.846 246.462,338.577 241.430,340.820 240.394 C 341.139 240.247,341.760 239.928,342.200 239.687 C 343.366 239.046,344.045 239.108,345.489 239.989 M353.443 239.670 C 354.747 240.142,355.341 241.124,354.827 241.957 C 354.650 242.243,354.141 241.973,353.401 241.201 C 352.062 239.804,351.880 239.768,350.805 240.689 C 349.414 241.880,350.520 244.000,352.532 244.000 C 352.840 244.000,353.566 244.373,354.146 244.829 C 356.011 246.296,355.191 250.000,353.001 250.000 C 352.476 250.000,351.946 250.163,351.823 250.362 C 351.485 250.910,348.893 249.988,348.677 249.243 C 348.575 248.889,348.361 248.285,348.203 247.900 C 347.717 246.721,348.813 247.091,350.281 248.602 C 351.621 249.982,351.659 249.994,352.609 249.302 C 354.335 248.047,353.749 246.868,350.718 245.499 C 347.983 244.264,347.487 240.012,350.076 240.003 C 350.448 240.001,350.864 239.820,351.000 239.600 C 351.321 239.080,351.854 239.095,353.443 239.670 M87.913 244.322 C 88.002 247.844,88.155 248.885,88.613 249.060 C 89.950 249.573,89.036 250.000,86.600 250.000 C 83.994 250.000,83.122 249.436,85.000 248.964 C 86.231 248.655,86.558 242.961,85.400 242.000 C 84.534 241.281,84.662 240.430,85.700 240.008 C 87.651 239.213,87.792 239.487,87.913 244.322 M220.816 239.900 C 220.987 243.122,221.154 244.355,221.511 245.010 C 221.748 245.444,222.047 246.136,222.176 246.547 C 222.732 248.317,224.426 244.649,224.552 241.400 C 224.608 239.964,224.729 239.787,225.731 239.671 C 227.376 239.481,228.271 240.335,227.208 241.079 C 226.439 241.618,224.800 244.680,224.800 245.578 C 224.800 245.810,224.620 246.000,224.400 246.000 C 224.180 246.000,224.000 246.332,224.000 246.739 C 224.000 249.921,221.623 250.881,220.630 248.100 C 220.257 247.055,219.693 245.609,219.376 244.886 C 219.059 244.164,218.800 243.382,218.800 243.148 C 218.800 242.915,218.414 242.182,217.943 241.520 C 217.237 240.529,217.185 240.255,217.643 239.965 C 218.323 239.534,220.794 239.484,220.816 239.900 M188.858 240.938 C 187.607 242.270,188.083 243.200,190.016 243.200 C 191.935 243.200,192.557 241.978,191.255 240.765 C 190.199 239.782,189.926 239.801,188.858 240.938 M215.667 244.016 C 215.528 247.488,215.605 248.142,216.237 248.841 C 217.034 249.722,216.398 250.611,215.267 250.196 C 214.974 250.088,214.119 250.000,213.367 250.000 C 211.870 250.000,211.531 249.403,212.800 249.000 C 213.735 248.703,213.992 243.416,213.137 242.048 C 212.407 240.878,212.992 240.000,214.502 240.000 L 215.828 240.000 215.667 244.016 M230.675 240.858 C 229.513 242.127,229.958 242.982,231.851 243.120 C 233.793 243.263,234.350 242.320,233.179 240.874 C 232.321 239.814,231.635 239.810,230.675 240.858 M256.664 240.791 C 255.500 241.968,255.952 242.979,257.707 243.124 C 259.514 243.274,260.008 242.482,259.035 240.997 C 258.266 239.824,257.672 239.773,256.664 240.791 M315.331 240.264 C 315.476 240.409,315.268 240.757,314.869 241.037 C 312.940 242.388,313.139 247.642,315.174 249.067 C 316.347 249.889,316.202 250.463,314.900 250.154 C 310.891 249.201,309.889 243.335,313.289 240.719 C 314.255 239.975,314.899 239.832,315.331 240.264 M325.629 241.054 C 324.086 243.015,324.807 246.400,326.767 246.400 C 327.975 246.400,328.801 245.079,328.787 243.169 C 328.765 240.125,327.190 239.070,325.629 241.054 M341.875 240.858 C 340.702 242.139,341.154 243.000,343.000 243.000 C 344.841 243.000,345.337 242.057,344.173 240.770 C 343.313 239.820,342.808 239.839,341.875 240.858 M325.138 251.652 C 323.783 252.149,323.338 253.741,324.191 255.042 C 325.547 257.112,331.200 256.050,331.200 253.727 C 331.200 251.624,328.106 250.565,325.138 251.652 " stroke="none" fill="#000000" fill-rule="evenodd"></path><path id="path2" d="M302.161 154.300 C 301.934 155.282,300.998 158.842,299.927 162.800 C 299.719 163.570,299.393 164.920,299.204 165.800 C 299.014 166.680,298.677 167.876,298.455 168.459 C 297.971 169.727,298.180 170.000,299.633 170.000 C 300.589 170.000,300.897 169.664,301.981 167.438 C 303.549 164.221,305.710 161.367,307.117 160.655 C 309.600 159.400,321.534 158.308,323.175 159.186 L 324.048 159.654 323.922 185.127 C 323.770 215.885,324.425 213.057,317.400 213.302 L 314.600 213.400 314.600 214.600 L 314.600 215.800 327.510 215.906 C 341.372 216.019,341.473 216.004,340.417 214.031 C 340.024 213.298,339.602 213.200,336.830 213.200 C 334.333 213.200,333.495 213.043,332.744 212.436 L 331.800 211.671 331.689 185.466 C 331.583 160.486,331.612 159.250,332.301 159.031 C 333.009 158.807,342.962 159.388,346.274 159.847 C 349.075 160.235,354.000 166.088,354.000 169.027 C 354.000 169.764,355.384 170.458,356.216 170.138 C 356.773 169.925,356.843 169.558,356.617 168.040 C 356.466 167.028,356.201 165.210,356.027 164.000 C 355.854 162.790,355.488 160.450,355.215 158.800 C 354.189 152.609,354.265 152.711,351.716 154.098 C 348.641 155.772,345.868 155.994,327.973 155.997 C 310.255 156.000,307.587 155.787,305.109 154.172 C 303.179 152.915,302.474 152.945,302.161 154.300 M211.072 156.261 C 210.923 156.411,210.800 157.043,210.800 157.667 L 210.800 158.800 214.220 158.800 C 218.159 158.800,219.826 159.433,220.294 161.107 C 220.699 162.553,220.691 209.475,220.286 210.926 C 219.852 212.482,217.934 213.200,214.213 213.200 L 211.200 213.200 211.200 214.600 L 211.200 216.000 224.000 216.000 L 236.800 216.000 236.800 214.642 L 236.800 213.285 233.609 213.140 C 228.224 212.895,228.725 215.669,228.710 186.013 L 228.697 160.725 229.559 159.862 C 230.230 159.190,231.055 158.956,233.310 158.800 L 236.200 158.600 236.200 157.400 L 236.200 156.200 223.772 156.094 C 216.937 156.036,211.222 156.111,211.072 156.261 M261.800 156.693 C 249.927 160.350,243.008 168.339,240.623 181.144 C 239.181 188.885,242.008 202.441,245.874 206.329 C 246.163 206.619,246.403 206.979,246.406 207.129 C 246.424 207.988,253.194 214.000,254.144 214.000 C 254.294 214.000,255.129 214.450,256.000 215.000 C 256.871 215.550,257.860 216.000,258.197 216.000 C 258.535 216.000,259.123 216.168,259.505 216.373 C 262.499 217.980,272.474 218.545,276.974 217.362 C 280.067 216.550,281.148 216.105,284.588 214.229 C 289.504 211.549,296.300 204.326,295.178 202.974 C 294.783 202.498,293.207 202.635,293.194 203.147 C 293.164 204.306,287.058 209.311,283.837 210.816 C 278.492 213.313,270.357 214.086,265.771 212.532 C 252.228 207.942,244.552 187.774,250.498 172.400 C 257.750 153.644,280.161 153.786,289.554 172.646 C 292.080 177.719,293.648 177.378,292.787 171.942 C 292.531 170.324,292.166 167.740,291.977 166.200 C 290.869 157.190,290.836 157.058,289.787 157.460 C 289.464 157.584,289.200 158.006,289.200 158.398 C 289.200 158.791,288.885 159.494,288.500 159.963 L 287.800 160.814 284.913 159.407 C 283.325 158.633,281.837 158.000,281.607 158.000 C 281.377 158.000,280.877 157.828,280.495 157.617 C 277.459 155.945,266.057 155.381,261.800 156.693 M135.448 232.322 C 135.146 232.811,137.865 234.137,138.595 233.857 C 139.102 233.663,139.145 233.445,138.803 232.806 C 138.364 231.986,135.877 231.628,135.448 232.322 M167.800 232.400 C 167.231 232.644,167.704 232.752,169.433 232.772 C 171.989 232.801,172.395 233.057,175.768 236.755 C 176.808 237.894,176.894 237.669,176.338 235.260 C 175.943 233.547,175.714 233.200,174.982 233.200 C 174.497 233.200,173.335 232.930,172.400 232.600 C 170.528 231.939,169.024 231.874,167.800 232.400 M241.384 232.600 C 241.322 232.820,241.074 233.614,240.833 234.365 C 240.275 236.110,240.520 236.333,241.678 235.131 C 244.024 232.695,247.273 231.929,247.748 233.700 C 247.881 234.195,247.992 237.799,247.995 241.710 L 248.000 248.820 246.800 249.060 C 244.550 249.510,245.593 250.000,248.800 250.000 C 251.734 250.000,253.234 249.431,251.100 249.128 C 250.198 249.000,249.471 236.636,250.194 233.700 C 250.603 232.037,255.416 233.102,256.152 235.018 C 256.626 236.253,257.244 235.567,257.123 233.939 L 257.000 232.279 249.249 232.239 C 244.390 232.215,241.456 232.349,241.384 232.600 M49.687 232.685 C 51.135 232.906,51.264 233.766,51.118 242.200 L 51.000 249.000 49.893 249.127 C 47.534 249.398,49.416 250.000,52.624 250.000 C 55.788 250.000,57.334 249.407,54.900 249.127 L 53.800 249.000 53.682 242.400 C 53.543 234.625,53.716 233.290,54.922 232.804 C 55.520 232.564,54.650 232.462,52.200 232.485 C 50.220 232.504,49.089 232.594,49.687 232.685 M273.872 233.043 C 272.793 233.628,272.771 233.697,273.372 234.613 C 274.304 236.035,274.308 249.200,273.376 249.200 C 273.033 249.200,272.864 249.380,273.000 249.600 C 273.136 249.820,274.047 250.000,275.024 250.000 C 276.001 250.000,276.800 249.820,276.800 249.600 C 276.800 249.380,276.603 249.200,276.362 249.200 C 276.067 249.200,275.952 247.797,276.007 244.900 C 276.251 232.203,276.177 231.794,273.872 233.043 M307.900 232.920 C 306.673 233.405,306.500 234.053,307.400 234.800 C 308.461 235.681,308.273 249.200,307.200 249.200 C 306.760 249.200,306.400 249.380,306.400 249.600 C 306.400 249.820,307.390 250.000,308.600 250.000 C 309.810 250.000,310.800 249.820,310.800 249.600 C 310.800 249.380,310.620 249.200,310.400 249.200 C 310.146 249.200,310.000 246.133,310.000 240.800 C 310.000 231.781,310.074 232.061,307.900 232.920 M165.271 233.484 C 160.950 235.577,159.789 243.496,163.219 247.485 C 166.147 250.892,171.722 251.408,174.999 248.576 C 176.887 246.945,176.709 246.842,174.341 248.195 C 166.910 252.443,159.442 240.958,165.618 234.782 C 167.355 233.045,167.220 232.541,165.271 233.484 M132.934 234.476 C 132.467 234.984,131.958 236.174,131.804 237.120 C 131.649 238.067,131.144 239.194,130.680 239.626 L 129.837 240.411 130.719 241.028 C 131.979 241.911,132.038 247.562,130.800 248.800 C 129.658 249.942,129.735 250.000,132.400 250.000 C 134.739 250.000,135.606 249.504,134.000 249.084 C 133.344 248.913,133.195 248.525,133.171 246.937 C 133.155 245.872,133.102 244.280,133.053 243.400 C 132.942 241.418,133.369 240.800,134.849 240.800 C 135.482 240.800,136.000 240.620,136.000 240.400 C 136.000 240.180,135.655 240.000,135.233 240.000 C 133.527 240.000,133.200 239.588,133.200 237.437 C 133.200 236.295,133.400 235.160,133.645 234.915 C 133.890 234.670,134.021 234.264,133.937 234.011 C 133.846 233.738,133.441 233.925,132.934 234.476 M85.096 234.756 C 84.835 235.751,85.076 236.000,86.294 236.000 C 87.062 236.000,87.230 235.819,87.128 235.100 C 86.958 233.905,85.388 233.639,85.096 234.756 M213.028 234.671 C 212.599 235.788,213.836 236.735,214.655 235.917 C 215.015 235.557,215.200 234.978,215.067 234.631 C 214.746 233.795,213.354 233.822,213.028 234.671 M334.835 234.734 C 334.525 235.315,334.556 235.632,334.958 235.965 C 335.754 236.626,336.864 236.051,336.721 235.053 C 336.562 233.943,335.367 233.741,334.835 234.734 M77.893 238.989 C 76.503 240.569,76.449 240.719,77.193 240.914 C 77.928 241.106,78.000 241.451,78.000 244.789 C 78.000 249.424,78.286 250.000,80.590 250.000 C 82.672 250.000,83.398 249.308,81.508 249.126 C 78.872 248.872,78.864 241.129,81.500 240.875 C 82.215 240.806,82.800 240.581,82.800 240.375 C 82.800 240.001,82.519 239.918,81.000 239.841 C 80.400 239.810,80.169 239.474,80.075 238.500 C 79.916 236.855,79.733 236.896,77.893 238.989 M90.907 238.886 C 89.247 240.583,89.231 240.624,90.107 241.008 C 90.942 241.375,90.993 241.619,90.900 244.770 C 90.774 249.004,91.285 250.000,93.586 250.000 C 94.448 250.000,95.264 249.820,95.400 249.600 C 95.537 249.378,95.236 249.197,94.724 249.194 C 92.930 249.182,92.761 248.775,92.884 244.767 L 93.000 241.000 94.700 240.877 C 96.712 240.731,97.003 240.000,95.049 240.000 C 93.567 240.000,92.950 239.486,92.738 238.078 C 92.608 237.208,92.503 237.255,90.907 238.886 M109.338 239.138 C 108.099 240.628,108.091 240.665,108.890 241.163 C 109.633 241.627,109.680 241.930,109.436 244.625 C 109.062 248.754,109.705 250.000,112.210 250.000 C 113.195 250.000,114.000 249.820,114.000 249.600 C 114.000 249.380,113.586 249.200,113.080 249.200 C 111.509 249.200,111.200 248.470,111.200 244.763 C 111.200 240.983,111.313 240.800,113.633 240.800 C 114.742 240.800,115.353 240.037,114.300 239.967 C 112.526 239.848,111.824 239.673,111.706 239.318 C 111.151 237.653,110.607 237.612,109.338 239.138 M206.110 239.168 C 205.117 240.365,204.952 240.773,205.395 240.943 C 205.829 241.109,205.999 242.116,206.085 245.040 C 206.217 249.508,206.916 250.548,209.500 250.123 C 210.975 249.880,211.267 249.203,209.900 249.194 C 208.132 249.182,207.961 248.765,208.084 244.767 L 208.200 241.000 210.000 240.776 C 211.863 240.545,211.573 240.129,209.400 239.917 C 208.424 239.822,208.176 239.595,208.073 238.700 C 207.907 237.254,207.648 237.315,206.110 239.168 M63.000 239.600 C 62.864 239.820,62.414 240.000,62.000 240.000 C 61.586 240.000,61.143 240.169,61.015 240.375 C 60.884 240.587,61.514 240.740,62.462 240.727 C 64.799 240.695,65.200 241.392,65.200 245.489 C 65.200 248.080,65.066 248.876,64.602 249.054 C 63.514 249.472,64.419 250.000,66.224 250.000 C 67.960 250.000,68.582 249.509,67.415 249.061 C 66.968 248.890,66.802 247.913,66.715 244.933 L 66.600 241.029 65.241 240.115 C 63.730 239.098,63.362 239.014,63.000 239.600 M73.491 240.609 C 74.142 241.426,74.728 241.832,74.944 241.616 C 75.542 241.018,74.941 240.127,73.631 239.671 L 72.399 239.241 73.491 240.609 M120.036 239.949 C 120.602 240.407,120.969 241.146,120.981 241.849 C 120.995 242.732,121.210 243.030,121.902 243.128 C 124.023 243.429,123.251 240.766,120.937 239.799 C 119.068 239.018,118.918 239.043,120.036 239.949 M151.809 240.019 C 151.037 240.511,150.482 240.642,150.229 240.389 C 149.037 239.197,147.228 240.373,148.132 241.752 C 149.184 243.357,149.083 248.656,147.994 249.002 C 146.632 249.434,147.542 250.000,149.600 250.000 C 151.624 250.000,152.587 249.447,151.196 249.083 C 149.214 248.565,150.322 241.200,152.381 241.200 C 154.268 241.200,154.849 240.839,154.379 239.960 C 153.879 239.026,153.345 239.038,151.809 240.019 M183.600 239.827 C 182.987 240.173,182.046 240.307,181.169 240.172 C 179.301 239.886,178.334 240.822,179.345 241.939 C 180.249 242.939,180.294 248.712,179.400 249.055 C 178.167 249.528,178.866 250.000,180.800 250.000 C 182.734 250.000,183.433 249.528,182.200 249.055 C 180.261 248.311,181.798 241.134,183.866 241.274 C 185.594 241.390,186.259 240.758,185.309 239.901 C 184.688 239.341,184.476 239.332,183.600 239.827 M97.700 239.909 C 96.670 240.077,96.517 240.606,97.400 240.945 C 97.869 241.125,98.000 241.925,98.000 244.602 C 98.000 249.019,98.549 250.000,101.022 250.000 C 101.974 250.000,102.864 249.820,103.000 249.600 C 103.144 249.367,102.745 249.200,102.046 249.200 C 100.151 249.200,99.600 248.019,99.600 243.960 C 99.600 240.269,99.308 239.647,97.700 239.909 M200.000 240.149 C 200.000 240.481,200.160 240.852,200.356 240.973 C 201.126 241.448,201.246 243.286,200.557 244.047 C 200.112 244.540,200.046 244.800,200.368 244.800 C 200.707 244.800,200.825 245.440,200.749 246.872 C 200.623 249.247,201.769 250.612,203.500 250.148 C 204.615 249.849,204.661 249.361,203.600 249.084 C 202.872 248.894,202.800 248.538,202.800 245.114 C 202.800 241.136,202.496 240.288,200.900 239.813 C 200.246 239.619,200.000 239.711,200.000 240.149 M268.974 240.043 C 268.624 240.609,269.966 242.000,270.862 242.000 C 271.703 242.000,271.848 241.090,271.100 240.511 C 270.232 239.839,269.235 239.620,268.974 240.043 M279.043 239.930 C 278.909 240.147,278.460 240.236,278.045 240.128 C 277.630 240.019,277.169 240.126,277.022 240.365 C 276.845 240.651,277.303 240.800,278.354 240.800 C 280.636 240.800,281.200 241.764,281.200 245.665 C 281.200 247.363,281.020 248.864,280.800 249.000 C 279.689 249.687,280.753 250.000,284.200 250.000 C 287.647 250.000,288.711 249.687,287.600 249.000 C 287.031 248.648,287.092 242.668,287.671 242.089 C 288.031 241.729,287.970 241.430,287.409 240.809 C 285.991 239.243,283.891 240.451,285.024 242.181 C 285.468 242.858,285.604 243.928,285.518 246.058 L 285.400 249.000 284.200 249.000 L 283.000 249.000 282.883 245.400 C 282.796 242.750,282.585 241.569,282.083 240.924 C 281.319 239.944,279.418 239.323,279.043 239.930 M289.200 240.126 L 287.800 240.580 289.600 240.709 C 290.677 240.786,291.601 241.102,291.900 241.495 C 292.504 242.289,292.588 248.636,292.000 249.000 C 291.094 249.560,291.710 250.000,293.400 250.000 C 295.165 250.000,295.787 249.511,294.600 249.055 C 294.125 248.873,294.000 248.036,294.000 245.042 C 294.000 240.008,292.933 238.915,289.200 240.126 M57.600 240.394 C 57.105 240.709,57.088 240.917,57.500 241.582 C 58.105 242.559,58.193 249.200,57.600 249.200 C 57.380 249.200,57.200 249.380,57.200 249.600 C 57.200 249.820,58.010 250.000,59.000 250.000 C 60.717 250.000,61.304 249.559,60.363 248.977 C 60.085 248.805,59.956 247.298,60.010 244.853 C 60.057 242.734,60.074 240.775,60.047 240.500 C 59.992 239.912,58.461 239.846,57.600 240.394 M69.874 240.591 C 68.240 241.795,69.107 244.054,71.700 245.350 C 74.113 246.556,75.226 249.200,73.320 249.200 C 72.772 249.200,72.738 249.297,73.148 249.700 C 73.555 250.101,73.848 249.978,74.628 249.078 C 76.107 247.370,75.728 245.382,73.745 244.438 C 73.115 244.138,72.181 243.699,71.669 243.462 C 70.454 242.900,69.736 241.610,70.407 241.195 C 70.677 241.029,70.831 240.704,70.749 240.474 C 70.653 240.205,70.341 240.247,69.874 240.591 M85.334 240.627 C 85.202 240.972,85.298 241.458,85.547 241.707 C 86.424 242.584,86.130 248.841,85.200 249.084 C 83.647 249.490,84.427 250.000,86.600 250.000 C 88.704 250.000,89.475 249.545,88.200 249.055 C 87.717 248.870,87.600 247.966,87.600 244.413 L 87.600 240.000 86.587 240.000 C 86.031 240.000,85.467 240.282,85.334 240.627 M104.329 243.801 C 104.434 246.186,104.334 247.797,104.062 248.125 C 103.224 249.135,105.399 250.359,106.964 249.759 C 107.515 249.547,107.494 249.392,106.796 248.505 C 106.130 247.657,106.000 246.881,106.000 243.746 C 106.000 240.106,105.974 240.000,105.082 240.000 C 104.176 240.000,104.165 240.055,104.329 243.801 M116.190 241.049 C 114.338 243.047,114.372 246.892,116.260 248.862 C 117.700 250.365,121.464 250.550,122.331 249.161 C 123.042 248.023,122.682 247.797,121.446 248.606 C 119.230 250.059,115.525 246.383,116.801 243.998 C 117.020 243.588,117.200 242.701,117.200 242.026 C 117.200 241.352,117.380 240.800,117.600 240.800 C 117.820 240.800,118.000 240.620,118.000 240.400 C 118.000 239.684,117.183 239.977,116.190 241.049 M138.314 240.695 C 137.250 241.355,136.655 242.397,136.200 244.400 C 135.741 246.424,139.146 250.987,140.274 249.859 C 140.450 249.684,140.292 249.371,139.924 249.165 C 137.714 247.929,137.463 240.800,139.629 240.800 C 139.833 240.800,140.000 240.620,140.000 240.400 C 140.000 239.840,139.571 239.915,138.314 240.695 M142.800 240.182 C 142.800 240.282,143.250 241.028,143.800 241.838 C 145.290 244.034,144.820 248.078,142.952 249.123 C 142.486 249.384,142.432 249.573,142.766 249.779 C 144.531 250.870,147.339 245.877,146.424 243.276 C 145.657 241.098,142.800 238.659,142.800 240.182 M187.075 241.122 C 183.088 245.283,188.917 253.273,193.148 249.447 C 194.254 248.446,193.822 247.836,192.582 248.649 C 190.102 250.274,186.599 246.935,187.813 244.103 C 187.979 243.716,188.075 242.905,188.027 242.299 C 187.972 241.607,188.173 241.109,188.567 240.957 C 188.913 240.825,189.096 240.555,188.974 240.358 C 188.613 239.775,188.210 239.937,187.075 241.122 M191.200 240.400 C 191.200 240.620,191.369 240.800,191.575 240.800 C 191.781 240.800,192.006 241.385,192.075 242.100 C 192.170 243.092,192.390 243.400,193.000 243.400 C 194.062 243.400,194.290 241.783,193.370 240.767 C 192.640 239.961,191.200 239.717,191.200 240.400 M213.194 240.608 C 212.783 241.103,212.811 241.349,213.345 241.939 C 214.397 243.102,214.285 248.800,213.204 249.083 C 211.866 249.433,212.743 250.000,214.624 250.000 C 216.294 250.000,216.902 249.558,216.000 249.000 C 215.773 248.860,215.600 246.863,215.600 244.376 C 215.600 239.771,214.855 238.605,213.194 240.608 M217.426 240.358 C 217.304 240.555,217.455 240.812,217.762 240.930 C 218.069 241.048,218.530 241.832,218.788 242.672 C 219.045 243.512,219.404 244.560,219.586 245.000 C 219.767 245.440,220.281 246.700,220.727 247.800 C 221.749 250.316,222.412 250.459,223.292 248.353 C 224.033 246.581,223.856 245.498,223.013 246.650 C 222.330 247.584,220.755 244.204,220.706 241.700 C 220.674 240.024,218.246 239.031,217.426 240.358 M224.670 240.263 C 224.525 240.408,224.568 240.723,224.765 240.963 C 224.962 241.203,225.198 241.850,225.290 242.400 L 225.457 243.400 225.923 242.290 C 226.179 241.679,226.660 241.075,226.992 240.948 C 227.324 240.820,227.496 240.555,227.374 240.358 C 227.118 239.944,225.061 239.872,224.670 240.263 M229.300 240.615 C 227.360 241.974,227.170 247.134,228.993 248.957 C 230.667 250.630,233.656 250.744,235.206 249.194 C 236.174 248.226,235.801 247.942,234.472 248.636 C 233.091 249.357,232.565 249.343,231.224 248.551 C 229.597 247.590,228.545 244.226,229.728 243.772 C 230.055 243.647,230.193 243.136,230.090 242.432 C 229.998 241.807,230.120 241.173,230.362 241.024 C 230.864 240.713,230.953 240.000,230.489 240.000 C 230.318 240.000,229.783 240.277,229.300 240.615 M233.200 240.376 C 233.200 240.583,233.380 240.864,233.600 241.000 C 233.820 241.136,234.000 241.789,234.000 242.451 C 234.000 243.470,234.138 243.636,234.896 243.528 C 236.038 243.365,236.237 242.333,235.379 241.024 C 234.737 240.045,233.200 239.588,233.200 240.376 M255.259 240.643 C 251.983 242.938,253.000 249.201,256.800 250.132 C 258.269 250.492,260.800 249.997,260.800 249.349 C 260.800 249.047,260.980 248.800,261.200 248.800 C 261.420 248.800,261.600 248.615,261.600 248.390 C 261.600 248.159,261.055 248.261,260.357 248.622 C 257.952 249.866,255.200 248.008,255.200 245.142 C 255.200 244.294,255.335 243.600,255.500 243.599 C 255.665 243.599,255.820 243.040,255.845 242.357 C 255.869 241.674,256.114 240.977,256.387 240.808 C 256.673 240.631,256.725 240.401,256.508 240.267 C 256.300 240.138,255.738 240.308,255.259 240.643 M259.434 241.500 C 259.847 243.785,260.542 244.275,261.585 243.019 C 262.218 242.255,260.957 240.000,259.896 240.000 C 259.268 240.000,259.202 240.215,259.434 241.500 M297.223 241.435 C 294.819 244.173,296.245 250.000,299.319 250.000 C 300.240 250.000,300.177 249.721,299.023 248.681 C 297.578 247.379,297.427 242.766,298.782 241.311 C 299.407 240.640,299.452 240.429,299.005 240.257 C 298.683 240.134,297.926 240.634,297.223 241.435 M302.000 240.179 C 302.000 240.278,302.450 240.844,303.000 241.438 C 303.550 242.031,304.032 242.986,304.070 243.558 C 304.230 245.945,303.892 247.845,303.167 248.626 C 302.253 249.610,302.198 250.000,302.971 250.000 C 305.734 250.000,307.038 243.614,304.753 241.276 C 303.713 240.212,302.000 239.530,302.000 240.179 M313.306 240.972 C 310.807 243.075,310.739 246.289,313.139 248.900 C 314.820 250.729,315.793 250.370,314.370 248.445 C 312.803 246.325,313.004 242.278,314.742 240.961 C 315.126 240.670,315.177 240.433,314.894 240.258 C 314.660 240.113,313.945 240.434,313.306 240.972 M317.600 240.400 C 317.600 240.620,317.783 240.800,318.006 240.800 C 318.746 240.800,319.997 243.377,319.999 244.905 C 320.000 246.381,319.563 247.499,318.436 248.902 C 317.632 249.903,318.194 250.227,319.382 249.448 C 321.599 247.996,322.574 244.475,321.310 242.486 C 320.005 240.431,317.600 239.079,317.600 240.400 M323.771 240.832 C 322.807 241.897,322.773 244.465,323.709 245.500 C 324.559 246.439,324.602 247.548,323.800 247.855 C 323.088 248.128,323.012 249.710,323.660 250.748 C 324.056 251.382,324.503 251.457,326.869 251.288 C 329.133 251.126,329.756 251.218,330.408 251.808 C 331.299 252.614,331.500 255.026,330.700 255.312 C 330.425 255.410,330.324 255.624,330.476 255.788 C 330.985 256.336,332.801 254.083,332.787 252.918 C 332.762 250.728,331.016 249.600,327.650 249.600 C 324.903 249.600,324.085 248.908,325.184 247.512 C 325.939 246.551,325.956 246.415,325.364 246.084 C 324.419 245.555,324.388 241.690,325.323 241.007 C 326.204 240.363,326.182 240.000,325.262 240.000 C 324.856 240.000,324.185 240.374,323.771 240.832 M328.298 240.235 C 328.155 240.378,328.319 240.776,328.663 241.120 C 329.575 242.032,329.157 245.144,327.995 246.084 L 327.111 246.800 328.127 246.800 C 329.536 246.800,330.800 245.083,330.800 243.170 C 330.800 241.509,331.335 240.882,332.164 241.570 C 332.559 241.898,332.828 241.848,333.221 241.374 C 333.892 240.566,333.016 239.863,331.800 240.234 C 330.715 240.564,329.920 240.568,329.179 240.245 C 328.838 240.097,328.441 240.092,328.298 240.235 M335.047 240.610 C 334.465 241.193,334.459 241.350,334.998 242.119 C 335.843 243.325,335.844 248.731,335.000 249.055 C 333.767 249.528,334.466 250.000,336.400 250.000 C 338.325 250.000,339.034 249.529,337.814 249.061 C 337.359 248.886,337.202 247.866,337.114 244.523 C 336.993 239.932,336.555 239.103,335.047 240.610 M340.208 240.955 C 336.017 245.147,341.597 253.381,345.957 249.438 C 347.141 248.368,347.006 247.940,345.700 248.621 C 342.907 250.078,339.102 246.570,340.701 244.010 C 340.947 243.615,341.057 242.938,340.944 242.506 C 340.830 242.073,341.022 241.435,341.369 241.088 C 341.716 240.741,342.000 240.354,342.000 240.229 C 342.000 239.700,341.097 240.066,340.208 240.955 M344.451 240.664 C 344.753 241.029,345.000 241.790,345.000 242.355 C 345.000 243.508,346.271 244.049,346.843 243.139 C 347.570 241.982,346.267 240.000,344.780 240.000 C 344.008 240.000,343.968 240.080,344.451 240.664 M352.800 240.283 C 352.800 240.641,354.251 242.000,354.632 242.000 C 354.755 242.000,354.798 241.595,354.728 241.100 C 354.606 240.245,352.800 239.480,352.800 240.283 M196.375 241.225 C 195.487 242.113,195.516 243.000,196.433 243.000 C 196.745 243.000,197.063 242.550,197.140 242.000 C 197.218 241.450,197.488 240.868,197.740 240.706 C 198.075 240.492,198.064 240.411,197.700 240.406 C 197.425 240.403,196.829 240.771,196.375 241.225 M264.943 240.953 C 261.409 244.988,263.390 250.303,268.359 250.121 C 271.160 250.018,272.139 249.200,269.462 249.200 C 265.515 249.200,263.089 242.706,266.330 240.815 C 266.926 240.468,266.911 240.425,266.200 240.427 C 265.760 240.429,265.194 240.665,264.943 240.953 M348.900 241.500 C 348.300 243.246,348.990 244.588,350.915 245.421 C 353.809 246.673,354.971 248.342,353.375 248.954 C 353.031 249.086,352.873 249.394,353.023 249.638 C 353.555 250.498,354.962 248.526,354.918 246.982 C 354.875 245.445,354.114 244.589,352.400 244.149 C 350.387 243.633,349.081 241.238,350.500 240.665 C 350.775 240.554,350.613 240.449,350.139 240.432 C 349.544 240.410,349.162 240.739,348.900 241.500 M224.187 244.040 C 224.041 244.502,224.118 245.078,224.360 245.320 C 224.680 245.640,224.800 245.410,224.800 244.480 C 224.800 243.003,224.569 242.837,224.187 244.040 M198.000 245.505 C 198.000 245.673,197.595 245.988,197.100 246.205 C 194.909 247.166,195.874 250.630,198.200 250.152 C 200.041 249.774,200.321 249.439,199.000 249.196 C 197.763 248.967,197.253 246.449,198.369 246.077 C 198.912 245.896,198.937 245.200,198.400 245.200 C 198.180 245.200,198.000 245.337,198.000 245.505 M69.200 248.373 C 69.200 249.209,69.439 249.622,70.030 249.810 C 71.174 250.173,71.460 249.750,70.664 248.871 C 70.299 248.467,70.000 247.926,70.000 247.669 C 70.000 247.411,69.820 247.200,69.600 247.200 C 69.380 247.200,69.200 247.728,69.200 248.373 M348.635 248.249 C 349.017 249.845,349.140 250.000,350.024 250.000 C 351.074 250.000,351.007 249.746,349.580 248.318 L 348.359 247.097 348.635 248.249 M322.662 252.731 C 320.783 254.808,322.938 256.822,326.958 256.746 L 329.800 256.692 327.063 256.246 C 324.164 255.774,322.434 254.206,323.564 253.076 C 323.804 252.836,324.000 252.496,324.000 252.320 C 324.000 251.770,323.352 251.969,322.662 252.731 " stroke="none" fill="#ffffff" fill-rule="evenodd"></path></g></svg>